<svg version="1.2" xmlns="http://www.w3.org/2000/svg" viewBox="0 0 1974 301" width="1974" height="301">
	<style>
		.s0 { fill: #000000 } 
	</style>
	<path id="Layer" class="s0" d="m56.5 139.8l-25.8-102.3v110.8q0 9.2-4.1 13.8c-1.4 1.4-3.1 2.6-4.9 3.4-1.9 0.7-3.9 1.1-5.9 1.1-2 0-4-0.4-5.8-1.1-1.9-0.8-3.6-2-5-3.4q-4.1-4.6-4.1-13.9v-126.8q0-10.6 5.4-14.2 5.5-3.7 14.8-3.7h10.1q9.1 0 13.2 1.7 1 0.4 1.9 1 0.9 0.6 1.7 1.3 0.8 0.8 1.4 1.7 0.6 0.9 1 1.9 0.7 1.7 1.4 3.4 0.6 1.7 1.1 3.4 0.6 1.8 1.1 3.5 0.5 1.8 0.9 3.6l23.3 87.8 23.3-87.8q0.5-1.8 0.9-3.5 0.5-1.8 1.1-3.5 0.6-1.8 1.2-3.5 0.6-1.7 1.3-3.4 0.5-1 1.1-1.9 0.6-0.9 1.4-1.7 0.7-0.7 1.7-1.3 0.9-0.6 1.9-1 4.1-1.7 13.2-1.7h10q9.3 0.1 14.8 3.7 5.5 3.7 5.5 14.2v126.9q0 9.2-4.1 13.8-1.1 1.1-2.3 2-1.3 0.9-2.7 1.5-1.4 0.6-3 0.9-1.5 0.2-3 0.2-1.5 0-3-0.3-1.5-0.3-2.8-0.8-1.4-0.6-2.6-1.5-1.2-0.9-2.2-2-4.2-4.6-4.2-13.8v-110.8l-25.7 102.2q-2.5 10-4.1 14.7-0.5 1.2-1 2.3-0.6 1.2-1.4 2.3-0.7 1.1-1.6 2-0.9 1-1.9 1.8-4.2 3.9-11.8 3.9-2.4 0.1-4.7-0.5-2.3-0.5-4.4-1.7-2.1-1.1-3.8-2.8-1.7-1.7-2.8-3.8-0.6-1-1.1-2-0.5-1-0.9-2.1-0.5-1.1-0.8-2.2-0.4-1.1-0.7-2.2-1.2-4.6-2.5-9.7z"/>
	<path id="Layer" fill-rule="evenodd" class="s0" d="m293.2 0.8q25 0 42.8 10.1 4.4 2.5 8.3 5.6 4 3 7.5 6.7 3.4 3.7 6.2 7.8 2.9 4.2 5.1 8.7 9.2 18.6 9.2 43.8 0 4.3-0.3 8.6-0.2 4.3-0.9 8.5-0.6 4.3-1.6 8.4-0.9 4.2-2.2 8.3-1.2 3.7-2.7 7.2-1.6 3.5-3.5 6.8-1.9 3.3-4.1 6.4-2.3 3.1-4.8 6-2.6 2.8-5.4 5.3-2.9 2.5-6 4.7-3.1 2.1-6.5 3.9-3.3 1.8-6.9 3.2-14.6 5.9-33.5 5.9-19 0-33.7-6.1-3.6-1.4-7-3.2-3.3-1.8-6.5-3.9-3.1-2.2-6-4.7-2.8-2.5-5.4-5.3-2.5-2.9-4.8-6-2.2-3.2-4.1-6.5-1.9-3.4-3.4-6.9-1.5-3.5-2.7-7.2-1.3-4.1-2.3-8.2-0.9-4.2-1.6-8.4-0.6-4.2-0.9-8.5-0.3-4.2-0.3-8.5 0-4.3 0.3-8.6 0.3-4.3 1-8.6 0.6-4.3 1.6-8.4 1.1-4.2 2.4-8.3 1.2-3.7 2.8-7.2 1.6-3.5 3.5-6.8 2-3.3 4.2-6.4 2.3-3.1 4.9-5.9 2.6-2.7 5.4-5.1 2.8-2.5 5.9-4.6 3.1-2.1 6.4-3.8 3.3-1.7 6.8-3.1 14.4-5.7 32.8-5.7zm46.1 82.5q0-17.6-5.7-30.5-5.6-13-16.2-19.6-2.7-1.6-5.7-2.9-2.9-1.3-6-2.1-3-0.9-6.2-1.3-3.2-0.3-6.4-0.3-2.3 0-4.6 0.2-2.3 0.2-4.5 0.7-2.3 0.5-4.5 1.1-2.2 0.7-4.3 1.7-2.1 0.9-4 2-2 1.2-3.8 2.5-1.8 1.3-3.4 2.9-1.6 1.5-3.1 3.2-1.6 2-3 4.1-1.4 2.2-2.6 4.4-1.2 2.3-2.1 4.6-1 2.4-1.7 4.8-0.9 3-1.5 6-0.7 3.1-1.1 6.1-0.5 3.1-0.7 6.2-0.2 3.1-0.1 6.2-0.1 3.1 0.1 6.3 0.2 3.1 0.7 6.2 0.4 3.1 1.1 6.2 0.6 3 1.5 6 0.7 2.5 1.7 5 1 2.4 2.2 4.7 1.3 2.3 2.7 4.5 1.5 2.1 3.2 4.2 1.4 1.7 3.1 3.3 1.6 1.5 3.5 2.9 1.8 1.4 3.8 2.5 1.9 1.2 4 2.1c3.3 1.4 6.7 2.4 10.2 3 3.4 0.6 7 0.8 10.5 0.6 3.5-0.3 7-0.9 10.4-1.9 3.4-1.1 6.7-2.5 9.7-4.3q10.5-6.2 16.7-19.2 6.1-13.1 6.1-32.1z"/>
	<path id="Layer" fill-rule="evenodd" class="s0" d="m504.3 0.8q25 0 42.8 10.1 4.4 2.5 8.3 5.6 4 3 7.5 6.7 3.4 3.7 6.2 7.8 2.9 4.2 5.1 8.7 9.2 18.6 9.2 43.8 0 4.3-0.3 8.6-0.2 4.3-0.9 8.5-0.6 4.3-1.6 8.4-0.9 4.2-2.2 8.3-1.2 3.7-2.7 7.2-1.6 3.5-3.5 6.8-1.9 3.3-4.1 6.4-2.3 3.1-4.8 6-2.6 2.8-5.4 5.3-2.9 2.5-6 4.7-3.1 2.1-6.5 3.9-3.3 1.8-6.9 3.2-14.6 5.9-33.5 5.9-19 0-33.8-6.1-3.5-1.4-6.9-3.2-3.3-1.8-6.4-3.9-3.2-2.2-6.1-4.7-2.8-2.5-5.4-5.3-2.5-2.9-4.8-6-2.2-3.2-4.1-6.5-1.9-3.4-3.4-6.9-1.5-3.5-2.7-7.2-1.3-4.1-2.3-8.2-0.9-4.2-1.6-8.4-0.6-4.2-0.9-8.5-0.3-4.2-0.3-8.5 0-4.3 0.3-8.6 0.3-4.3 1-8.6 0.6-4.3 1.6-8.4 1.1-4.2 2.4-8.3 1.2-3.7 2.8-7.2 1.6-3.5 3.5-6.8 2-3.3 4.2-6.4 2.3-3.1 4.9-5.9 2.6-2.7 5.4-5.1 2.8-2.5 5.9-4.6 3.1-2.1 6.4-3.8 3.3-1.7 6.8-3.1 14.4-5.7 32.7-5.7zm46.2 82.5q0-17.6-5.7-30.5-5.7-13-16.2-19.6-2.7-1.6-5.7-2.9-2.9-1.3-6-2.1-3-0.9-6.2-1.3-3.2-0.3-6.4-0.3-2.3 0-4.6 0.2-2.3 0.2-4.5 0.7-2.3 0.5-4.5 1.1-2.2 0.7-4.4 1.7-2 0.9-3.9 2-2 1.1-3.8 2.5-1.8 1.3-3.4 2.9-1.6 1.5-3.1 3.2-1.6 2-3 4.1-1.4 2.2-2.6 4.4-1.2 2.3-2.1 4.6-1 2.4-1.7 4.8-0.9 3-1.6 6-0.6 3.1-1.1 6.1-0.4 3.1-0.6 6.2-0.2 3.1-0.2 6.2 0 3.1 0.2 6.3 0.2 3.1 0.6 6.2 0.5 3.1 1.1 6.2 0.7 3 1.6 6 0.7 2.5 1.7 5 1 2.4 2.2 4.7 1.2 2.3 2.7 4.5 1.5 2.1 3.1 4.2 1.5 1.7 3.2 3.3 1.6 1.5 3.4 2.9 1.9 1.4 3.8 2.5 2 1.2 4.1 2.1c3.2 1.4 6.6 2.4 10.1 3 3.5 0.6 7.1 0.8 10.6 0.6 3.5-0.3 7-0.9 10.4-1.9 3.4-1.1 6.6-2.5 9.7-4.3q10.4-6.2 16.6-19.2 6.2-13.1 6.2-32.1z"/>
	<path id="Layer" class="s0" d="m687.1 20.3l62.5 94.5v-95.4q0-9.3 4-14 1-1.2 2.2-2.1 1.3-0.9 2.7-1.5 1.4-0.6 2.9-0.8 1.5-0.3 3-0.3c4.6 0 8.3 1.6 11 4.7q4 4.6 4 14v126.1q0 21.2-17.5 21.2-1 0-2-0.1-1-0.1-2-0.2-1-0.2-2-0.4-1-0.3-1.9-0.6-0.9-0.3-1.8-0.7-0.9-0.5-1.7-1-0.8-0.5-1.6-1.1-0.8-0.5-1.5-1.2-0.8-0.7-1.5-1.5-0.8-0.7-1.5-1.5-0.7-0.8-1.4-1.7-0.6-0.8-1.3-1.7-2.6-3.7-5.2-7.5l-61-93.4v94q0 9.2-4.2 13.9-1.1 1.1-2.3 2-1.3 0.9-2.7 1.5-1.4 0.6-2.9 0.9-1.5 0.3-3.1 0.3-1.5 0-3.1-0.3-1.5-0.2-2.9-0.9-1.5-0.6-2.7-1.5-1.3-0.9-2.3-2.1-4.2-4.7-4.2-13.8v-123.8q0-7.9 1.8-12.3 0.5-1.3 1.2-2.4 0.7-1.2 1.6-2.2 0.9-1 1.9-1.9 1-0.9 2.2-1.6 1.1-0.8 2.4-1.3 1.2-0.6 2.5-1 1.3-0.4 2.7-0.6 1.4-0.2 2.8-0.2 1.8-0.1 3.5 0.2 1.8 0.3 3.5 1 1.7 0.7 3.2 1.7 1.5 1 2.7 2.3 0.7 0.8 1.4 1.5 0.6 0.8 1.2 1.5 0.6 0.8 1.2 1.6 0.5 0.8 1.1 1.7 2.5 3.8 5.1 8z"/>
	<path id="Layer" fill-rule="evenodd" class="s0" d="m917.2 163.9h-49q-10.7 0-15.2-4.7-4.5-4.8-4.6-15.2v-120.6q0-10.6 4.7-15.2 4.6-4.7 15-4.7h52q2.5 0 5 0.1 2.5 0 5 0.2 2.5 0.2 4.9 0.5 2.5 0.3 5 0.6 2 0.4 4 0.9 1.9 0.5 3.8 1.2 1.9 0.6 3.7 1.5 1.9 0.9 3.6 1.9 1.4 0.9 2.8 1.8 1.3 1 2.6 2.1 1.3 1.1 2.4 2.2 1.2 1.2 2.3 2.5 2.2 2.6 3.9 5.5 1.6 2.9 2.8 6.1 1.2 3.2 1.7 6.5 0.6 3.3 0.6 6.7 0 24.1-24.1 35.2 31.6 10.1 31.6 39.2 0.1 3.2-0.4 6.4-0.4 3.1-1.3 6.2-0.8 3.1-2.1 6-1.4 2.9-3.1 5.6-1.6 2.7-3.7 5-2 2.4-4.4 4.4-2.3 2-5 3.7-2.6 1.6-5.5 2.9-2 0.8-4.1 1.4-2 0.7-4.2 1.3-2.1 0.5-4.2 0.9-2.2 0.4-4.3 0.7-2.8 0.3-5.6 0.6-2.7 0.2-5.5 0.4-2.8 0.1-5.6 0.2-2.8 0.1-5.5 0zm-36.3-136v41.5h29.8q12.1 0 18.8-2.3 1.6-0.5 3.1-1.4 1.5-0.9 2.8-2 1.3-1.1 2.3-2.5 1.1-1.3 1.9-2.8 0.7-1.2 1.2-2.4 0.5-1.3 0.9-2.6 0.3-1.3 0.5-2.6 0.1-1.4 0.1-2.7 0-12.2-8.6-16.2-8.7-3.9-26.4-4zm33.8 64.8h-33.8v46.9h34.9q33 0 33-23.8 0-12.1-8.6-17.6-8.5-5.5-25.5-5.5z"/>
	<path id="Layer" fill-rule="evenodd" class="s0" d="m1137.6 145.8l-7.7-20.2h-65.2l-7.7 20.6q-4.5 12-7.7 16.3-3.1 4.2-10.4 4.2-1.5 0-2.9-0.3-1.5-0.3-2.9-0.9-1.4-0.6-2.7-1.4-1.2-0.9-2.3-1.9-1.1-1-2-2.1-0.8-1.2-1.4-2.5-0.6-1.3-1-2.7-0.3-1.4-0.3-2.9 0-0.9 0.1-1.7 0.1-0.9 0.2-1.7 0.1-0.9 0.3-1.7 0.2-0.9 0.5-1.7 1.1-3.5 3.6-9.7l41-104.2q1.7-4.5 4.2-10.8 0.5-1.3 1.1-2.7 0.6-1.3 1.3-2.6 0.6-1.3 1.3-2.6 0.8-1.3 1.6-2.5 0.7-1.1 1.5-2 0.8-1 1.7-1.8 1-0.9 2-1.6 1-0.7 2.1-1.3 2.6-1.3 5.5-2 2.8-0.6 5.8-0.6 2.9 0 5.8 0.6 2.8 0.7 5.4 2 1.1 0.6 2.1 1.3 1.1 0.7 2 1.5 0.9 0.9 1.7 1.8 0.9 1 1.6 2 0.7 1 1.3 2.1 0.7 1 1.3 2.1 0.5 1.1 1.1 2.2 0.5 1.1 1 2.3 1.9 4.6 4.8 12.4l42 103.5q4.9 11.8 4.9 17.2 0 5.6-4.7 10.2-1.1 1.1-2.4 2-1.2 0.9-2.7 1.5-1.4 0.6-3 0.9-1.5 0.3-3.1 0.3-0.8 0-1.7-0.1-0.8-0.1-1.6-0.2-0.9-0.2-1.7-0.5-0.8-0.2-1.6-0.6-0.6-0.3-1.2-0.7-0.7-0.4-1.3-0.9-0.5-0.5-1.1-1-0.5-0.5-1-1.1-0.6-0.9-1.1-1.7-0.6-0.9-1.1-1.8-0.5-0.9-0.9-1.8-0.5-1-0.9-1.9-2-4.9-3.5-8.6zm-64.4-44.6h47.9l-24.1-66.2z"/>
	<path id="Layer" class="s0" d="m1351.6 115.8q0.1 3.4-0.4 6.9-0.5 3.4-1.4 6.7-1 3.3-2.4 6.5-1.4 3.1-3.3 6-7.5 11.6-21.9 18.2-14.5 6.6-34.3 6.6-23.7 0-39.1-9-2.7-1.6-5.2-3.5-2.5-1.9-4.8-4.1-2.2-2.1-4.2-4.6-1.9-2.4-3.6-5-6.8-10.8-6.8-21c-0.1-1.9 0.3-3.8 1-5.6 0.8-1.8 1.8-3.4 3.2-4.7 1.4-1.3 3-2.4 4.7-3.1 1.8-0.7 3.7-1 5.6-1q1.2 0 2.4 0.2 1.2 0.2 2.3 0.6 1.1 0.4 2.1 1.1 1 0.6 1.9 1.4 1 1 1.9 2.2 0.9 1.1 1.7 2.3 0.8 1.3 1.4 2.6 0.6 1.3 1.1 2.6 0.6 1.7 1.4 3.4 0.7 1.6 1.5 3.2 0.9 1.6 1.8 3.2 0.9 1.5 1.9 3 1 1.4 2.1 2.6 1.1 1.2 2.4 2.3 1.2 1.1 2.6 2 1.4 0.9 2.9 1.6 6.5 3.4 17 3.4 14.4 0 23.5-6.8 9-6.7 9-16.8 0-8-4.9-13-1.3-1.3-2.8-2.4-1.4-1.1-3-2.1-1.6-1-3.3-1.7-1.7-0.8-3.5-1.4-7.7-2.6-20.6-5.5-3.7-0.9-7.4-1.9-3.7-1-7.3-2.1-3.6-1.2-7.2-2.6-3.6-1.4-7-2.9-2.8-1.2-5.3-2.8-2.6-1.5-5-3.4-2.3-1.8-4.4-4-2.1-2.1-3.9-4.5-6.8-9.4-6.8-23.3-0.1-3.1 0.4-6.2 0.4-3.1 1.3-6.1 0.9-3 2.3-5.8 1.4-2.8 3.2-5.4 7.2-10.3 20.9-15.8 13.7-5.5 32.2-5.5 14.7 0 25.5 3.7 2.5 0.7 4.8 1.7 2.4 1 4.6 2.3 2.3 1.2 4.4 2.6 2.1 1.5 4.1 3.1 1.6 1.3 3.1 2.8 1.4 1.4 2.7 3 1.4 1.6 2.5 3.4 1.1 1.7 2.1 3.5 0.8 1.5 1.4 3.1 0.6 1.6 1 3.2 0.4 1.7 0.6 3.4 0.2 1.6 0.3 3.3 0 1.5-0.3 2.9-0.3 1.4-0.8 2.8-0.5 1.3-1.3 2.5-0.7 1.2-1.7 2.3-1 1.1-2.1 2-1.2 0.9-2.5 1.5-1.3 0.6-2.8 0.9-1.4 0.3-2.9 0.2-5.5 0-8.4-2.7-1-1.1-1.9-2.2-0.8-1-1.6-2.2-0.8-1.1-1.5-2.3-0.7-1.2-1.3-2.5-0.9-2-2.1-3.9-1.1-1.9-2.4-3.7-1.3-1.8-2.8-3.4-1.5-1.6-3.2-3.1-6.1-5.1-19.7-5.1-12.6 0-20.3 5.5-7.7 5.6-7.7 13.3 0 1.1 0.1 2.2 0.2 1.1 0.5 2.2 0.3 1.1 0.8 2.1 0.6 1 1.2 1.9 0.7 0.9 1.6 1.7 0.8 0.9 1.7 1.6 0.9 0.8 1.9 1.4 1 0.7 2 1.3 1.1 0.6 2.3 1.1 1.1 0.6 2.3 1.1 1.1 0.5 2.3 0.9 1.2 0.4 2.4 0.8 4.7 1.4 15.6 4.2 3.1 0.7 6.2 1.5 3.1 0.8 6.1 1.6 3.1 0.9 6.2 1.9 3 0.9 6 1.9 2.5 0.9 5 1.9 2.4 1 4.7 2.1 2.4 1.2 4.6 2.5 2.3 1.4 4.5 2.9 1.8 1.3 3.6 2.8 1.7 1.6 3.2 3.3 1.5 1.8 2.8 3.7 1.3 1.9 2.4 4 4.3 8.3 4.3 20.5z"/>
	<path id="Layer" class="s0" d="m1526.4 138.7l-25.9-96.2-26.3 96.2q-3.1 10.9-4.9 15.7-0.5 1.2-1.1 2.4-0.7 1.2-1.5 2.2-0.8 1.1-1.7 2.1-0.9 1-2 1.8-4.5 3.8-11.9 3.8-1.3 0-2.6-0.1-1.2-0.1-2.5-0.4-1.3-0.3-2.5-0.7-1.2-0.5-2.3-1.1-1-0.5-1.9-1.2-0.9-0.7-1.7-1.5-0.8-0.8-1.5-1.7-0.6-0.9-1.2-1.9-0.6-1.2-1.2-2.4-0.6-1.1-1.1-2.4-0.5-1.2-0.9-2.4-0.4-1.3-0.7-2.6-1.6-5.6-2.8-10.4l-26.7-108q-2.4-9.4-2.4-14.3 0-1.5 0.3-3 0.2-1.4 0.8-2.8 0.6-1.3 1.4-2.5 0.8-1.2 1.9-2.2 1.1-1.1 2.3-1.9 1.3-0.8 2.7-1.4 1.4-0.5 2.9-0.8 1.4-0.3 2.9-0.2 8.9 0 12 5.7 3 5.7 5.3 16.5l21 93.7 23.6-87.7q0.4-1.9 1-3.9 0.5-1.9 1.1-3.8 0.6-1.9 1.2-3.8 0.7-1.9 1.4-3.8 0.5-1.4 1.2-2.6 0.7-1.3 1.6-2.4 0.8-1.2 1.8-2.2 1-1 2.1-1.9 4.7-3.8 12.8-3.8 8.1 0 12.8 4 1 0.8 2 1.8 0.9 1 1.7 2.1 0.8 1.1 1.4 2.3 0.7 1.2 1.2 2.5 1.7 4.7 4.7 15.5l23.7 87.6 21.1-93.6q0.3-1.5 0.6-2.9 0.3-1.4 0.7-2.9 0.4-1.4 0.8-2.8 0.4-1.5 0.8-2.9 0.4-1 0.8-2 0.5-1.1 1.1-2 0.6-0.9 1.3-1.8 0.7-0.9 1.5-1.6 3.3-3.3 9.7-3.3 1.5 0 2.9 0.2 1.5 0.3 2.9 0.8 1.3 0.6 2.6 1.4 1.2 0.8 2.3 1.8 1.1 1 1.9 2.2 0.9 1.2 1.4 2.6 0.6 1.4 0.9 2.8 0.3 1.5 0.2 3 0 4.5-2.4 14.3l-26.7 108q-2.7 11-4.5 16-0.5 1.3-1.1 2.5-0.6 1.2-1.4 2.3-0.8 1.2-1.7 2.2-0.9 1-1.9 1.9-4.4 3.8-12.2 3.8-7.5 0-12-3.7-1-0.8-1.9-1.7-0.9-1-1.7-2.1-0.8-1-1.5-2.2-0.6-1.1-1.1-2.4-1.7-4.6-4.9-15.8z"/>
	<path id="Layer" fill-rule="evenodd" class="s0" d="m1759.3 145.8l-7.7-20.2h-65.2l-7.7 20.6q-4.5 12-7.6 16.3-3.2 4.2-10.4 4.2-1.5 0-3-0.3-1.5-0.3-2.9-0.9-1.4-0.6-2.6-1.4-1.3-0.9-2.4-1.9-1.1-1-1.9-2.1-0.9-1.2-1.5-2.5-0.6-1.3-0.9-2.7-0.4-1.4-0.4-2.9 0-0.9 0.1-1.7 0.1-0.9 0.2-1.7 0.2-0.9 0.4-1.7 0.2-0.9 0.4-1.7 1.1-3.5 3.6-9.7l41-104.2q1.8-4.5 4.2-10.8 0.6-1.3 1.1-2.7 0.6-1.3 1.3-2.6 0.6-1.3 1.4-2.6 0.7-1.3 1.5-2.5 0.7-1.1 1.5-2 0.8-1 1.8-1.8 0.9-0.9 1.9-1.6 1-0.7 2.1-1.3 1.3-0.7 2.7-1.2 1.3-0.5 2.8-0.9 1.4-0.3 2.8-0.4 1.5-0.2 2.9-0.1 1.5-0.1 3 0.1 1.4 0.1 2.9 0.4 1.4 0.4 2.8 0.9 1.4 0.5 2.7 1.2 1.1 0.6 2.1 1.3 1 0.7 1.9 1.5 0.9 0.9 1.8 1.8 0.8 1 1.5 2 0.7 1 1.3 2.1 0.7 1 1.3 2.1 0.6 1.1 1.1 2.2 0.5 1.1 1 2.3 1.9 4.6 4.9 12.4l41.9 103.5q4.9 11.8 4.9 17.2 0 5.6-4.6 10.2-1.1 1.1-2.4 2-1.3 0.9-2.8 1.5-1.4 0.6-2.9 0.9-1.6 0.3-3.1 0.3-0.9 0-1.7-0.1-0.9-0.1-1.7-0.2-0.8-0.2-1.6-0.5-0.8-0.2-1.6-0.6-0.7-0.3-1.3-0.7-0.6-0.4-1.2-0.9-0.6-0.5-1.1-1-0.5-0.5-1-1.1-0.6-0.9-1.2-1.7-0.5-0.9-1-1.8-0.5-0.9-1-1.8-0.4-1-0.8-1.9-2.1-4.9-3.6-8.6zm-64.4-44.6h47.9l-24.1-66.2z"/>
	<path id="Layer" fill-rule="evenodd" class="s0" d="m1913.7 101.5h-29.8v45.4q0 9.7-4.6 14.7c-1.5 1.6-3.3 2.9-5.3 3.8-2 0.8-4.2 1.3-6.4 1.3-2.2 0-4.3-0.5-6.3-1.3-2.1-0.9-3.9-2.1-5.4-3.7q-4.5-5-4.5-14.6v-123.7q0-10.7 4.9-15.3 5-4.6 15.7-4.6h41.7q18.5 0 28.4 2.9 2.4 0.6 4.6 1.5 2.3 0.9 4.5 2 2.1 1.2 4.1 2.6 2 1.3 3.8 2.9 1.8 1.6 3.4 3.4 1.6 1.8 3 3.8 1.4 2 2.5 4.1 1.1 2.1 2 4.3 1 2.5 1.7 5 0.7 2.6 1.2 5.2 0.4 2.6 0.6 5.2 0.3 2.6 0.2 5.3 0 24.5-15.1 37.1-15.1 12.7-44.9 12.7zm-7.9-73.6h-21.9v49h21.9q11.5 0 19.2-2.4 1.7-0.5 3.4-1.2 1.6-0.8 3.1-1.8 1.5-1 2.8-2.2 1.4-1.2 2.5-2.7 4-5.4 4-14.3 0-10.6-6.3-17.3-6.9-7.1-28.7-7.1z"/>
	<path id="Layer" class="s0" d="m36.8 247.8h-10.5v34.3q0.1 0.6 0 1.2-0.1 0.6-0.2 1.1-0.2 0.6-0.5 1.1-0.2 0.5-0.6 1-0.3 0.4-0.7 0.6-0.4 0.3-0.9 0.5-0.4 0.2-0.9 0.3-0.4 0.1-0.9 0.1-0.5 0-1-0.1-0.5-0.1-0.9-0.3-0.5-0.2-0.9-0.5-0.4-0.2-0.7-0.6-0.4-0.5-0.6-1-0.3-0.5-0.5-1.1-0.1-0.5-0.2-1.1-0.1-0.6 0-1.2v-34.3h-10.5q-0.5 0-0.9 0-0.5-0.1-1-0.2-0.5-0.2-0.9-0.4-0.4-0.2-0.8-0.5-0.6-0.6-0.9-1.3-0.3-0.8-0.3-1.6 0-0.8 0.3-1.5 0.3-0.8 0.9-1.4 0.4-0.2 0.8-0.5 0.5-0.2 0.9-0.3 0.5-0.1 1-0.2 0.4 0 0.9 0h30.5q0.4 0 0.9 0 0.5 0.1 1 0.2 0.5 0.1 0.9 0.4 0.4 0.2 0.8 0.5 0.3 0.3 0.6 0.6 0.2 0.3 0.4 0.7 0.1 0.4 0.2 0.7 0.1 0.4 0.1 0.8 0 0.5-0.1 0.8-0.1 0.4-0.2 0.8-0.2 0.4-0.4 0.7-0.3 0.3-0.6 0.6-0.4 0.3-0.8 0.5-0.4 0.2-0.9 0.4-0.5 0.1-1 0.2-0.5 0-0.9 0z"/>
	<path id="Layer" class="s0" d="m63.6 244.9v13.5h20.6v-13.5q0-0.6 0-1.2 0.1-0.6 0.3-1.1 0.1-0.6 0.4-1.1 0.3-0.5 0.6-1 0.4-0.3 0.7-0.6 0.4-0.3 0.9-0.5 0.4-0.2 0.9-0.3 0.5 0 1 0 0.4 0 0.9 0 0.5 0.1 1 0.3 0.4 0.2 0.8 0.5 0.4 0.3 0.8 0.6 0.3 0.5 0.6 1 0.3 0.5 0.4 1.1 0.2 0.5 0.3 1.1 0 0.6 0 1.2v37.2q0 0.6 0 1.2-0.1 0.6-0.3 1.1-0.1 0.6-0.4 1.1-0.3 0.5-0.7 1-0.3 0.4-0.7 0.6-0.4 0.3-0.8 0.5-0.5 0.2-0.9 0.3-0.5 0.1-1 0.1-0.5 0-1-0.1-0.4-0.1-0.9-0.2-0.4-0.2-0.8-0.5-0.4-0.3-0.7-0.7-0.4-0.4-0.7-1-0.2-0.5-0.4-1-0.2-0.6-0.2-1.2-0.1-0.6 0-1.1v-16h-20.7v15.9q0 0.6 0 1.2-0.1 0.6-0.3 1.1-0.1 0.6-0.4 1.1-0.3 0.5-0.7 1-0.3 0.4-0.7 0.6-0.4 0.3-0.8 0.5-0.5 0.2-1 0.3-0.4 0.1-0.9 0.1-0.5 0-1-0.1-0.5-0.1-0.9-0.3-0.5-0.2-0.9-0.5-0.4-0.3-0.7-0.6-0.3-0.5-0.6-1-0.3-0.5-0.4-1.1-0.2-0.5-0.3-1.1 0-0.6 0-1.2v-37.2q0-0.6 0-1.2 0.1-0.6 0.3-1.1 0.1-0.6 0.4-1.1 0.3-0.5 0.6-1 0.3-0.3 0.7-0.6 0.4-0.3 0.9-0.5 0.4-0.2 0.9-0.3 0.5 0 1 0 0.5 0 0.9 0 0.5 0.1 1 0.3 0.4 0.2 0.8 0.5 0.4 0.3 0.8 0.6 0.3 0.5 0.6 1 0.3 0.5 0.4 1.1 0.2 0.5 0.3 1.1 0 0.6 0 1.2z"/>
	<path id="Layer" class="s0" d="m141.8 247.3h-21.6v11.6h19.9q0.4-0.1 0.9 0 0.4 0 0.8 0.2 0.5 0.1 0.8 0.3 0.4 0.2 0.8 0.5 0.2 0.2 0.5 0.5 0.2 0.3 0.3 0.6 0.1 0.4 0.2 0.7 0.1 0.4 0.1 0.8 0 0.3-0.1 0.7-0.1 0.3-0.2 0.7-0.1 0.3-0.3 0.6-0.2 0.3-0.5 0.6-0.3 0.3-0.7 0.5-0.4 0.2-0.8 0.3-0.5 0.1-0.9 0.2-0.4 0-0.9 0h-19.9v13.4h22.4q0.4 0 0.9 0 0.4 0.1 0.9 0.2 0.4 0.2 0.8 0.4 0.4 0.2 0.8 0.5 0.2 0.2 0.5 0.6 0.2 0.3 0.3 0.7 0.2 0.3 0.2 0.7 0.1 0.4 0.1 0.8 0 0.4-0.1 0.7 0 0.4-0.2 0.8-0.1 0.3-0.3 0.6-0.3 0.3-0.5 0.6-0.4 0.3-0.8 0.5-0.4 0.2-0.8 0.3-0.5 0.1-0.9 0.2-0.5 0-0.9 0h-26q-3.2 0-4.5-1.4-1.4-1.4-1.4-4.5v-35.5q0-0.4 0-0.8 0-0.4 0.1-0.9 0.1-0.4 0.2-0.8 0.1-0.4 0.3-0.8 0.1-0.3 0.3-0.6 0.2-0.3 0.5-0.5 0.2-0.3 0.5-0.5 0.3-0.2 0.6-0.3 0.4-0.2 0.8-0.3 0.4-0.1 0.9-0.2 0.4-0.1 0.8-0.1 0.4 0 0.9 0h25.2q0.5 0 0.9 0 0.5 0.1 0.9 0.2 0.5 0.1 0.9 0.3 0.4 0.2 0.7 0.5 0.6 0.5 0.9 1.2 0.2 0.7 0.2 1.5 0 0.7-0.2 1.4-0.3 0.7-0.9 1.2-0.3 0.3-0.7 0.5-0.4 0.2-0.9 0.4-0.4 0.1-0.9 0.2-0.4 0-0.9 0z"/>
	<path id="Layer" fill-rule="evenodd" class="s0" d="m190.3 239.9h12.5q1.1 0 2.1 0 1.1 0.1 2.1 0.2 1.1 0.1 2.1 0.3 1 0.1 2.1 0.4 0.8 0.2 1.7 0.5 0.8 0.4 1.6 0.8 0.8 0.4 1.6 1 0.7 0.5 1.4 1.1 7.4 6.3 7.4 19.2 0 1-0.1 1.9 0 1-0.1 2-0.1 1-0.2 1.9-0.2 1-0.4 2-0.1 0.8-0.4 1.6-0.2 0.8-0.5 1.6-0.3 0.8-0.6 1.6-0.4 0.7-0.8 1.5-0.4 0.7-0.8 1.4-0.5 0.6-1 1.3-0.5 0.6-1 1.2-0.6 0.6-1.2 1.1-0.4 0.4-0.9 0.8-0.5 0.4-1 0.7-0.6 0.4-1.1 0.7-0.6 0.3-1.1 0.5-0.6 0.3-1.2 0.5-0.6 0.2-1.2 0.4-0.6 0.2-1.2 0.3-0.6 0.2-1.3 0.3-0.7 0.1-1.4 0.2-0.8 0.1-1.5 0.1-0.7 0.1-1.5 0.1-0.7 0-1.4 0h-12.5q-0.5 0-1 0-0.5 0-1-0.1-0.5-0.1-1-0.3-0.5-0.2-0.9-0.4-0.3-0.2-0.6-0.4-0.3-0.2-0.5-0.5-0.2-0.3-0.4-0.6-0.2-0.4-0.3-0.7-0.1-0.5-0.1-0.9-0.1-0.5-0.2-1 0-0.4-0.1-0.9 0-0.5 0-0.9v-34.7q0-3 1.4-4.4c1-1 2.5-1.4 4.5-1.4zm3.8 7.6v32h7.2c1.6 0 2.8 0 3.7-0.1q0.4 0 0.8-0.1 0.3-0.1 0.7-0.1 0.3-0.1 0.7-0.2 0.3-0.1 0.6-0.2 0.4-0.2 0.7-0.3 0.4-0.2 0.7-0.3 0.3-0.2 0.6-0.4 0.3-0.3 0.6-0.5 4.8-4 4.8-14 0-7-2.1-10.5-0.5-0.7-1-1.4-0.6-0.7-1.2-1.3-0.7-0.5-1.5-1-0.7-0.4-1.6-0.7-0.9-0.3-1.8-0.4-0.9-0.2-1.9-0.3-0.9-0.2-1.8-0.2-1-0.1-1.9 0z"/>
	<path id="Layer" class="s0" d="m271 247.3h-21.6v11.6h19.9q0.4-0.1 0.9 0 0.4 0 0.8 0.2 0.4 0.1 0.8 0.3 0.4 0.2 0.8 0.5 0.2 0.2 0.4 0.5 0.3 0.3 0.4 0.6 0.1 0.4 0.2 0.7 0.1 0.4 0 0.8 0.1 0.3 0 0.7-0.1 0.3-0.2 0.7-0.1 0.3-0.3 0.6-0.3 0.3-0.5 0.6-0.4 0.3-0.8 0.5-0.3 0.2-0.8 0.3-0.4 0.1-0.8 0.2-0.5 0-0.9 0h-19.9v13.4h22.3q0.5 0 0.9 0 0.5 0.1 0.9 0.2 0.5 0.2 0.9 0.4 0.4 0.2 0.7 0.5 0.3 0.2 0.6 0.6 0.2 0.3 0.3 0.6 0.2 0.4 0.2 0.8 0.1 0.4 0.1 0.8 0 0.4-0.1 0.7 0 0.4-0.2 0.8-0.1 0.3-0.4 0.6-0.2 0.3-0.5 0.6-0.3 0.3-0.7 0.5-0.4 0.2-0.9 0.3-0.4 0.1-0.9 0.2-0.4 0-0.9 0h-26q-3.1 0-4.5-1.4-1.3-1.4-1.3-4.5v-35.5q0-0.4 0-0.8 0-0.4 0.1-0.9 0.1-0.4 0.2-0.8 0.1-0.4 0.3-0.8 0.1-0.3 0.3-0.6 0.2-0.3 0.5-0.5 0.2-0.3 0.5-0.5 0.3-0.2 0.6-0.3 0.4-0.2 0.8-0.3 0.4-0.1 0.8-0.2 0.5-0.1 0.9-0.1 0.4 0 0.8 0h25.3q0.5 0 0.9 0 0.5 0 0.9 0.2 0.4 0.1 0.8 0.3 0.4 0.2 0.8 0.5 0.5 0.5 0.8 1.2 0.3 0.7 0.3 1.5 0 0.7-0.3 1.4-0.3 0.7-0.8 1.2-0.4 0.3-0.8 0.5-0.4 0.2-0.8 0.4-0.4 0.1-0.9 0.2-0.4 0-0.9 0z"/>
	<path id="Layer" class="s0" d="m288.8 278l10.5-15.4-8.9-13.8q-0.2-0.4-0.5-0.8-0.2-0.4-0.5-0.9-0.2-0.4-0.4-0.8-0.2-0.5-0.4-0.9-0.2-0.3-0.3-0.7-0.1-0.3-0.2-0.6-0.1-0.4-0.1-0.7-0.1-0.4-0.1-0.8 0-0.3 0.1-0.7 0.1-0.3 0.3-0.6 0.1-0.3 0.4-0.6 0.2-0.3 0.4-0.5 0.4-0.3 0.7-0.5 0.3-0.2 0.7-0.3 0.4-0.2 0.8-0.2 0.4-0.1 0.8-0.1 0.4 0 0.9 0.1 0.4 0 0.8 0.2 0.4 0.1 0.7 0.4 0.4 0.2 0.7 0.5 0.4 0.5 0.9 1.1 0.4 0.5 0.7 1 0.4 0.6 0.8 1.1 0.4 0.6 0.7 1.2l7.1 11.4 7.5-11.4 1.6-2.5q0.2-0.2 0.3-0.5 0.2-0.2 0.4-0.4 0.1-0.2 0.3-0.4 0.1-0.2 0.3-0.4 0.2-0.2 0.3-0.3 0.2-0.2 0.4-0.3 0.1-0.1 0.3-0.2 0.2-0.1 0.4-0.2 0.2-0.1 0.4-0.2 0.2 0 0.5-0.1 0.2 0 0.4 0 0.2-0.1 0.4-0.1 0.5 0 0.9 0.1 0.4 0 0.8 0.2 0.3 0.1 0.7 0.3 0.3 0.2 0.6 0.5 0.3 0.3 0.5 0.6 0.2 0.2 0.4 0.6 0.1 0.3 0.2 0.7 0.1 0.3 0.1 0.7 0 2.1-2.5 5.8l-9.3 14 10 15.4q0.3 0.4 0.5 0.8 0.3 0.4 0.6 0.9 0.2 0.4 0.4 0.8 0.3 0.4 0.5 0.9 0.1 0.3 0.2 0.6 0.2 0.3 0.2 0.6 0.1 0.3 0.2 0.7 0 0.3 0 0.6 0 0.3 0 0.6-0.1 0.2-0.1 0.5-0.1 0.2-0.2 0.5-0.1 0.2-0.2 0.5-0.2 0.2-0.3 0.4-0.2 0.2-0.4 0.4-0.2 0.2-0.4 0.4-0.3 0.1-0.5 0.3-0.2 0.1-0.5 0.2-0.3 0.1-0.6 0.2-0.3 0-0.6 0.1-0.3 0-0.6 0-0.2 0-0.5 0-0.3 0-0.6-0.1-0.3-0.1-0.6-0.2-0.3-0.1-0.5-0.3-0.3-0.1-0.5-0.2-0.2-0.2-0.4-0.4-0.2-0.2-0.3-0.3-0.2-0.2-0.4-0.5-0.5-0.8-2.1-3.2l-8.3-13.1-8.9 13.5q-1 1.6-1.4 2.2-0.1 0.2-0.3 0.4-0.1 0.1-0.2 0.3-0.1 0.1-0.3 0.3-0.1 0.1-0.3 0.3-0.1 0.1-0.3 0.3-0.2 0.1-0.3 0.3-0.2 0.1-0.4 0.2-0.2 0.1-0.4 0.2-0.3 0.1-0.5 0.2-0.2 0-0.5 0.1-0.3 0-0.5 0-0.3 0.1-0.5 0-0.4 0.1-0.8 0-0.4-0.1-0.8-0.2-0.3-0.1-0.7-0.3-0.3-0.3-0.6-0.5-0.3-0.3-0.5-0.7-0.3-0.3-0.4-0.7-0.2-0.4-0.2-0.9-0.1-0.4-0.1-0.8 0-2.5 2.4-5.9z"/>
	<path id="Layer" class="s0" d="m358.8 252.9h2.1v-2.6q-0.1-0.8 0-1.7 0-0.8 0.2-1.6 0.1-0.9 0.3-1.7 0.2-0.8 0.5-1.6 0.3-0.6 0.6-1.1 0.4-0.5 0.8-1 0.5-0.4 1-0.8 0.6-0.4 1.2-0.6 0.8-0.3 1.6-0.5 0.9-0.3 1.7-0.4 0.9-0.2 1.8-0.2 0.8-0.1 1.7 0 7.7 0 7.7 3.8 0 0.2 0 0.5-0.1 0.3-0.2 0.6-0.1 0.2-0.2 0.5-0.2 0.2-0.4 0.5-0.2 0.2-0.4 0.3-0.2 0.2-0.4 0.3-0.3 0.1-0.6 0.2-0.2 0-0.5 0-0.2 0-0.4 0-0.3 0-0.5-0.1-0.2 0-0.4 0-0.2 0-0.5-0.1-0.2 0-0.5-0.1-0.3 0-0.5 0-0.3 0-0.6 0-0.2-0.1-0.5-0.1-2.4 0-3.1 1.4-0.1 0.5-0.3 1-0.1 0.5-0.2 1-0.1 0.5-0.1 1-0.1 0.5 0 1v2.1h2.1q5 0 5 3 0 2.2-1.3 2.8-0.5 0.1-0.9 0.2-0.5 0.2-0.9 0.2-0.5 0.1-1 0.1-0.4 0.1-0.9 0h-2.2v23.4q0.1 0.5 0 1.1 0 0.5-0.2 1-0.2 0.5-0.4 1-0.3 0.5-0.6 0.9-0.3 0.3-0.7 0.6-0.3 0.3-0.8 0.4-0.4 0.2-0.8 0.3-0.5 0.1-0.9 0.1-0.5 0-0.9-0.1-0.4-0.1-0.8-0.3-0.4-0.1-0.8-0.4-0.3-0.3-0.6-0.6-0.4-0.4-0.6-0.9-0.3-0.5-0.4-1-0.2-0.5-0.2-1-0.1-0.6-0.1-1.1v-23.3h-2.4q-0.4 0-0.8 0-0.4-0.1-0.8-0.2-0.3-0.1-0.7-0.3-0.4-0.2-0.7-0.4-0.2-0.2-0.4-0.5-0.2-0.2-0.4-0.5-0.1-0.3-0.2-0.6 0-0.4 0-0.7 0-3.2 4.4-3.2z"/>
	<path id="Layer" fill-rule="evenodd" class="s0" d="m420.1 270.1q0 0.9 0 1.8-0.1 0.9-0.2 1.8-0.2 1-0.4 1.8-0.3 0.9-0.6 1.8-0.3 0.8-0.6 1.6-0.4 0.7-0.9 1.4-0.4 0.8-0.9 1.4-0.5 0.7-1.1 1.3-0.6 0.6-1.3 1.1-0.6 0.6-1.3 1-0.7 0.5-1.4 0.9-0.8 0.4-1.6 0.7-0.8 0.3-1.7 0.5-0.9 0.3-1.8 0.5-1 0.1-1.9 0.2-0.9 0.1-1.8 0-0.9 0.1-1.9 0-0.9-0.1-1.8-0.2-0.9-0.2-1.8-0.5-0.9-0.2-1.7-0.5-1.6-0.7-3-1.6-1.4-0.9-2.6-2.2-1.1-1.2-2-2.6-0.9-1.4-1.5-3-0.3-0.9-0.5-1.8-0.3-0.9-0.4-1.8-0.2-0.9-0.2-1.8-0.1-0.9-0.1-1.8 0-1 0.1-1.9 0-0.9 0.2-1.9 0.1-0.9 0.4-1.8 0.2-0.9 0.5-1.8 0.3-0.8 0.7-1.5 0.3-0.8 0.8-1.5 0.4-0.7 0.9-1.4 0.6-0.6 1.1-1.2 0.6-0.6 1.3-1.2 0.6-0.5 1.3-0.9 0.7-0.5 1.5-0.9 0.7-0.4 1.5-0.7 1.7-0.6 3.5-0.9 1.9-0.3 3.7-0.3 1.9 0 3.7 0.3 1.8 0.3 3.5 0.9 1.6 0.6 3 1.6 1.4 0.9 2.6 2.1 1.2 1.2 2.1 2.7 0.9 1.4 1.4 3 0.3 0.9 0.6 1.8 0.2 0.9 0.4 1.8 0.1 0.9 0.2 1.8 0.1 0.9 0 1.9zm-8.8 0q0-5.4-2.4-8.4-0.5-0.7-1.2-1.3-0.8-0.6-1.6-1-0.8-0.4-1.7-0.6-0.9-0.2-1.8-0.1-0.6 0-1.2 0-0.6 0.1-1.2 0.3-0.6 0.2-1.1 0.4-0.6 0.3-1.1 0.6-0.5 0.4-1 0.8-0.4 0.4-0.8 0.9-0.4 0.5-0.7 1.1-0.3 0.5-0.5 1.1-0.3 0.8-0.5 1.5-0.2 0.8-0.3 1.5-0.2 0.8-0.2 1.6-0.1 0.8-0.1 1.5 0 0.8 0.1 1.6 0 0.7 0.1 1.5 0.2 0.7 0.4 1.5 0.2 0.7 0.4 1.4 0.3 0.6 0.6 1.2 0.3 0.5 0.6 1 0.4 0.5 0.9 1 0.4 0.4 0.9 0.8 1.3 0.8 2.8 1.2 1.5 0.3 3 0.1 1.6-0.3 2.9-1 1.3-0.8 2.3-2 2.4-2.9 2.4-8.2z"/>
	<path id="Layer" class="s0" d="m442.4 275.3v7.3q0 0.5 0 1.1-0.1 0.5-0.2 1-0.2 0.5-0.5 1-0.2 0.5-0.5 0.9-0.3 0.3-0.7 0.6-0.4 0.3-0.8 0.4-0.4 0.2-0.8 0.3-0.5 0.1-0.9 0.1-0.4 0-0.9-0.1-0.4-0.1-0.8-0.2-0.4-0.2-0.8-0.5-0.3-0.2-0.6-0.6-0.4-0.4-0.6-0.9-0.3-0.4-0.4-0.9-0.2-0.6-0.2-1.1-0.1-0.5-0.1-1.1v-24.5c0-4 1.5-5.9 4.3-5.9q0.5-0.1 0.9 0 0.5 0.1 0.9 0.3 0.4 0.1 0.8 0.4 0.3 0.3 0.6 0.7 0.3 0.4 0.5 0.9 0.2 0.5 0.3 1 0.1 0.5 0.2 1.1 0.1 0.5 0.1 1.1 0.3-0.6 0.6-1.2 0.4-0.5 0.8-1 0.4-0.6 0.9-1 0.4-0.5 0.9-0.9 0.5-0.4 1-0.7 0.5-0.3 1.1-0.4 0.6-0.2 1.1-0.3 0.6-0.1 1.2 0 0.7 0 1.4 0.1 0.7 0.1 1.4 0.2 0.7 0.2 1.3 0.5 0.7 0.2 1.3 0.6 2.6 1.3 2.6 3.6 0 0.4 0 0.8-0.1 0.3-0.2 0.7-0.2 0.3-0.4 0.6-0.2 0.3-0.5 0.6-0.2 0.2-0.5 0.4-0.3 0.2-0.6 0.3-0.3 0.2-0.6 0.2-0.4 0.1-0.7 0.1-0.3-0.1-0.6-0.1-0.3-0.1-0.6-0.1-0.3-0.1-0.6-0.2-0.2-0.1-0.5-0.2-0.4-0.1-0.8-0.2-0.4-0.2-0.8-0.2-0.5-0.1-0.9-0.1-0.4-0.1-0.8-0.1-0.4 0-0.8 0-0.5 0.1-0.9 0.2-0.4 0.1-0.7 0.3-0.4 0.2-0.8 0.5-0.3 0.3-0.6 0.6-0.3 0.4-0.5 0.8-0.3 0.3-0.4 0.8-0.2 0.4-0.4 0.8-0.1 0.6-0.3 1.2-0.1 0.6-0.3 1.2-0.1 0.5-0.2 1.2-0.1 0.6-0.1 1.2-0.3 2.8-0.3 6.7z"/>
	<path id="Layer" class="s0" d="m496.7 248.1q-0.4 0-0.8-0.1-0.4-0.1-0.8-0.2-0.4-0.1-0.8-0.4-0.4-0.2-0.7-0.4-0.3-0.4-0.6-0.7-0.2-0.4-0.4-0.8-0.2-0.4-0.3-0.9 0-0.4 0-0.8 0-0.5 0.1-0.9 0-0.4 0.2-0.8 0.2-0.4 0.5-0.8 0.2-0.3 0.5-0.6 0.3-0.3 0.7-0.5 0.4-0.3 0.8-0.4 0.4-0.2 0.8-0.3 0.4 0 0.8 0 0.4 0 0.9 0 0.4 0.1 0.7 0.2 0.4 0.2 0.8 0.4 0.3 0.2 0.6 0.5 0.4 0.3 0.6 0.6 0.3 0.4 0.5 0.8 0.1 0.4 0.2 0.9 0.1 0.4 0.1 0.9 0 0.4-0.1 0.8-0.1 0.5-0.2 0.9-0.2 0.4-0.4 0.8-0.3 0.3-0.6 0.6-0.3 0.3-0.7 0.5-0.3 0.2-0.7 0.4-0.4 0.1-0.8 0.2-0.4 0.1-0.9 0.1zm4.4 9.1v25.4q0 0.5 0 1.1-0.1 0.5-0.3 1-0.1 0.5-0.4 1-0.2 0.5-0.6 0.9-0.3 0.3-0.6 0.6-0.4 0.3-0.8 0.4-0.4 0.2-0.9 0.3-0.4 0.1-0.9 0.1-0.4 0-0.8-0.1-0.5-0.1-0.9-0.3-0.4-0.2-0.8-0.4-0.3-0.3-0.6-0.6-0.3-0.5-0.6-0.9-0.2-0.5-0.4-1-0.1-0.5-0.2-1.1 0-0.5 0-1v-25.2q0-0.5 0-1 0.1-0.6 0.2-1.1 0.2-0.5 0.4-0.9 0.3-0.5 0.6-0.9 0.3-0.3 0.7-0.6 0.3-0.2 0.7-0.4 0.4-0.2 0.9-0.3 0.4 0 0.8 0 0.5 0 0.9 0 0.5 0.1 0.9 0.3 0.4 0.2 0.8 0.4 0.3 0.3 0.6 0.6 0.4 0.4 0.6 0.8 0.3 0.4 0.4 0.9 0.2 0.5 0.3 1 0 0.5 0 1z"/>
	<path id="Layer" class="s0" d="m524.8 257v1.1q0.5-0.7 1.1-1.4 0.5-0.6 1.2-1.2 0.6-0.5 1.3-1 0.7-0.5 1.4-0.9 0.8-0.4 1.6-0.7 0.7-0.3 1.5-0.4 0.8-0.2 1.7-0.3 0.8-0.1 1.6-0.1 0.8 0 1.6 0.1 0.8 0.1 1.6 0.3 0.8 0.2 1.5 0.5 0.8 0.3 1.5 0.6 0.7 0.4 1.3 0.9 0.6 0.4 1.1 1 0.5 0.5 0.9 1.1 0.5 0.7 0.8 1.3 0.2 0.4 0.4 0.9 0.2 0.4 0.3 0.8 0.2 0.5 0.3 0.9 0.1 0.5 0.1 0.9 0.1 0.6 0.2 1.2 0 0.6 0 1.2 0.1 0.6 0.1 1.2 0 0.6 0 1.2v16.4q0 0.5 0 1.1-0.1 0.5-0.2 1-0.2 0.5-0.4 1-0.3 0.5-0.6 0.9-0.3 0.3-0.7 0.6-0.3 0.3-0.7 0.4-0.4 0.2-0.9 0.3-0.4 0.1-0.9 0.1-0.4 0-0.9-0.1-0.4-0.1-0.8-0.3-0.4-0.2-0.8-0.4-0.4-0.3-0.7-0.6-0.3-0.5-0.5-0.9-0.3-0.5-0.4-1-0.2-0.5-0.3-1.1 0-0.5 0-1v-14.7q0.1-0.8 0-1.7 0-0.8-0.2-1.7-0.1-0.8-0.4-1.6-0.2-0.8-0.6-1.6-1.2-2.3-4.8-2.3-0.6 0-1.2 0.1-0.5 0-1.1 0.2-0.5 0.2-1 0.5-0.5 0.2-1 0.6-0.5 0.3-0.9 0.8-0.4 0.4-0.8 0.9-0.4 0.5-0.6 1-0.3 0.5-0.5 1.1-0.2 0.9-0.4 1.8-0.1 1-0.2 1.9-0.1 0.9-0.1 1.8 0 0.9 0 1.9v11q0.1 0.5 0 1-0.1 0.6-0.2 1.1-0.2 0.5-0.4 1-0.3 0.5-0.6 0.9-0.3 0.3-0.7 0.6-0.4 0.2-0.8 0.4-0.4 0.2-0.8 0.2-0.5 0.1-0.9 0.1-0.5 0-0.9-0.1-0.4-0.1-0.8-0.2-0.4-0.2-0.8-0.5-0.4-0.2-0.7-0.6-0.3-0.4-0.5-0.9-0.3-0.5-0.4-1-0.2-0.5-0.3-1 0-0.5 0-1.1v-25.3q0-0.5 0-1 0.1-0.5 0.2-1 0.2-0.5 0.4-0.9 0.2-0.5 0.5-0.9 0.3-0.3 0.6-0.5 0.4-0.3 0.8-0.4 0.4-0.2 0.8-0.3 0.4-0.1 0.8 0 0.3 0 0.6 0 0.2 0 0.5 0.1 0.3 0.1 0.5 0.2 0.3 0.1 0.5 0.2 0.3 0.2 0.5 0.3 0.2 0.2 0.4 0.4 0.2 0.2 0.3 0.5 0.2 0.2 0.3 0.5 0.2 0.3 0.3 0.6 0.1 0.3 0.2 0.6 0 0.4 0.1 0.7 0 0.4 0 0.7z"/>
	<path id="Layer" class="s0" d="m563.7 252.9h1v-5.2c0-1.5 0-2.6 0.1-3.4q0.1-0.3 0.1-0.5 0.1-0.3 0.1-0.6 0.1-0.2 0.2-0.5 0.1-0.2 0.3-0.5 0.1-0.2 0.3-0.4 0.1-0.2 0.3-0.4 0.2-0.2 0.4-0.3 0.2-0.2 0.5-0.3 0.2-0.2 0.5-0.3 0.2-0.1 0.5-0.2 0.3 0 0.6-0.1 0.2 0 0.5 0 0.4 0 0.8 0.1 0.5 0.1 0.8 0.2 0.4 0.2 0.8 0.4 0.3 0.3 0.6 0.6 0.2 0.2 0.4 0.4 0.2 0.2 0.3 0.5 0.2 0.2 0.3 0.5 0.1 0.3 0.2 0.6 0 0.4 0.1 0.8 0 0.5 0.1 0.9 0 0.4 0 0.8 0 0.5 0 0.9v6h3.2q0.4 0 0.8 0 0.4 0.1 0.7 0.2 0.4 0.1 0.7 0.3 0.4 0.2 0.7 0.4 0.2 0.2 0.4 0.5 0.2 0.2 0.3 0.5 0.2 0.3 0.2 0.6 0.1 0.3 0.1 0.7 0 0.3-0.1 0.7-0.1 0.4-0.2 0.7-0.2 0.4-0.5 0.6-0.3 0.3-0.6 0.5-0.5 0.1-1 0.3-0.5 0.1-1 0.2-0.5 0.1-1 0.2-0.5 0-1 0h-1.7v16.1q0 0.4 0 0.8 0 0.4 0.1 0.8 0 0.4 0 0.8 0 0.4 0.1 0.8 0 0.3 0.1 0.5 0 0.3 0.1 0.5 0.1 0.2 0.3 0.4 0.1 0.2 0.2 0.4 0.2 0.2 0.5 0.3 0.2 0.2 0.5 0.3 0.2 0.1 0.5 0.1 0.3 0 0.5 0 0.3 0 0.6 0 0.2 0 0.5-0.1 0.3 0 0.5-0.1 0.3 0 0.5-0.1 0.3 0 0.6-0.1 0.2 0 0.5 0 0.2-0.1 0.5-0.1 0.3 0 0.5 0 0.3 0 0.5 0 0.3 0.1 0.6 0.2 0.2 0.1 0.4 0.3 0.2 0.1 0.4 0.3 0.2 0.2 0.4 0.5 0.2 0.2 0.3 0.5 0.1 0.3 0.1 0.5 0.1 0.3 0.1 0.6 0 0.6-0.2 1.1-0.2 0.5-0.5 0.9-0.3 0.5-0.7 0.8-0.4 0.3-0.9 0.5-0.8 0.3-1.7 0.5-0.8 0.3-1.6 0.4-0.9 0.2-1.7 0.2-0.9 0.1-1.7 0-0.8 0.1-1.6 0-0.8-0.1-1.6-0.2-0.8-0.2-1.6-0.5-0.8-0.3-1.5-0.7-0.5-0.3-0.9-0.7-0.5-0.4-0.8-0.9-0.4-0.5-0.6-1.1-0.3-0.5-0.5-1.1-0.1-0.8-0.3-1.6-0.1-0.8-0.2-1.7-0.1-0.8-0.1-1.6 0-0.8 0-1.6v-16.9h-1.2q-0.4 0-0.8 0-0.3-0.1-0.7-0.2-0.4-0.1-0.7-0.3-0.4-0.2-0.7-0.4-0.2-0.2-0.4-0.5-0.2-0.2-0.3-0.5-0.2-0.3-0.2-0.7-0.1-0.3-0.1-0.6 0-0.3 0.1-0.6 0-0.4 0.2-0.6 0.1-0.3 0.3-0.6 0.2-0.3 0.4-0.5 0.4-0.2 0.7-0.4 0.4-0.2 0.8-0.3 0.4-0.1 0.8-0.2 0.4 0 0.8 0z"/>
	<path id="Layer" fill-rule="evenodd" class="s0" d="m617.8 272.2h-17.2q0 0.7 0 1.4 0.1 0.7 0.3 1.3 0.1 0.7 0.4 1.3 0.2 0.7 0.5 1.3 0.2 0.5 0.6 1 0.3 0.5 0.7 0.9 0.4 0.5 0.9 0.9 0.4 0.3 0.9 0.7 0.5 0.2 1 0.5 0.5 0.2 1.1 0.3 0.5 0.2 1.1 0.2 0.5 0.1 1.1 0.1 0.4 0 0.7 0 0.4 0 0.8-0.1 0.3 0 0.7-0.1 0.3-0.1 0.7-0.2 0.3-0.1 0.7-0.2 0.3-0.1 0.6-0.2 0.3-0.2 0.6-0.4 0.3-0.1 0.6-0.3 0.3-0.2 0.6-0.4 0.3-0.2 0.6-0.4 0.3-0.2 0.5-0.5 0.3-0.2 0.6-0.4 1-0.9 2.7-2.5 0.2-0.1 0.4-0.2 0.2-0.2 0.5-0.2 0.2-0.1 0.5-0.1 0.2-0.1 0.5 0 0.3-0.1 0.6 0 0.3 0 0.6 0.1 0.2 0.1 0.5 0.3 0.3 0.1 0.5 0.3 0.2 0.2 0.4 0.4 0.1 0.3 0.2 0.6 0.1 0.2 0.2 0.5 0 0.3 0 0.6 0 0.4-0.1 0.7 0 0.4-0.2 0.8-0.1 0.3-0.2 0.6-0.2 0.4-0.4 0.7-0.3 0.4-0.6 0.8-0.3 0.5-0.7 0.9-0.3 0.3-0.7 0.7-0.4 0.3-0.8 0.6-0.6 0.5-1.1 0.8-0.6 0.4-1.2 0.7-0.6 0.3-1.2 0.5-0.7 0.3-1.3 0.5-0.8 0.3-1.6 0.4-0.8 0.2-1.6 0.4-0.9 0.1-1.7 0.2-0.8 0-1.7 0-8.4 0-13.1-4.8-4.7-4.9-4.7-13.2 0-0.9 0-1.8 0.1-1 0.3-1.9 0.1-0.9 0.3-1.8 0.2-0.9 0.5-1.7 0.3-0.8 0.7-1.6 0.3-0.7 0.7-1.5 0.5-0.7 1-1.4 0.5-0.6 1-1.3 0.6-0.6 1.2-1.1 0.7-0.5 1.4-1 0.7-0.5 1.4-0.8 0.7-0.4 1.5-0.7 0.9-0.3 1.8-0.6 0.9-0.2 1.8-0.4 0.9-0.2 1.8-0.2 0.9-0.1 1.8-0.1 1.2 0 2.3 0.1 1.2 0.1 2.3 0.4 1.1 0.3 2.2 0.7 1.1 0.4 2.1 1 0.8 0.5 1.6 1.1 0.8 0.6 1.5 1.3 0.7 0.7 1.3 1.5 0.6 0.8 1.1 1.7 0.4 0.8 0.8 1.7 0.3 0.8 0.6 1.7 0.2 0.9 0.3 1.8 0.1 0.9 0.1 1.8 0 3.3-1.9 4.3-0.6 0.3-1.2 0.5-0.7 0.2-1.4 0.3-0.7 0.2-1.3 0.2-0.7 0.1-1.4 0zm-17.2-5h16c-0.2-3-1-5.2-2.5-6.7q-0.5-0.6-1.1-1-0.7-0.5-1.4-0.8-0.7-0.2-1.5-0.4-0.7-0.1-1.5-0.1-0.8 0-1.5 0.1-0.8 0.2-1.5 0.5-0.7 0.3-1.3 0.7-0.6 0.4-1.1 1-2.2 2.3-2.6 6.7z"/>
	<path id="Layer" class="s0" d="m647.8 275.3v7.3q0 0.5 0 1.1-0.1 0.5-0.3 1-0.1 0.5-0.4 1-0.2 0.5-0.6 0.9-0.3 0.3-0.6 0.6-0.4 0.2-0.8 0.4-0.4 0.2-0.9 0.3-0.4 0.1-0.9 0-0.4 0.1-0.8 0-0.5-0.1-0.9-0.3-0.4-0.2-0.7-0.4-0.4-0.3-0.7-0.6-0.3-0.4-0.6-0.9-0.2-0.5-0.4-1-0.1-0.5-0.2-1.1 0-0.5 0-1v-24.5c0-4 1.4-5.9 4.3-5.9q0.4-0.1 0.9 0 0.4 0.1 0.8 0.3 0.5 0.1 0.8 0.4 0.4 0.3 0.6 0.7 0.3 0.4 0.5 0.9 0.2 0.5 0.4 1 0.1 0.5 0.2 1.1 0 0.5 0 1.1 0.3-0.6 0.7-1.2 0.3-0.5 0.7-1 0.5-0.6 0.9-1 0.5-0.5 0.9-0.9 0.5-0.4 1-0.7 0.6-0.3 1.1-0.4 0.6-0.2 1.2-0.3 0.6-0.1 1.2 0 0.7 0 1.4 0.1 0.7 0.1 1.3 0.2 0.7 0.2 1.4 0.5 0.6 0.2 1.3 0.6 2.6 1.3 2.6 3.6 0 0.4-0.1 0.8-0.1 0.3-0.2 0.7-0.1 0.3-0.4 0.6-0.2 0.3-0.4 0.6-0.3 0.2-0.6 0.4-0.2 0.2-0.6 0.3-0.3 0.2-0.6 0.2-0.3 0.1-0.7 0.1-0.2-0.1-0.5-0.1-0.3-0.1-0.6-0.1-0.3-0.1-0.6-0.2-0.3-0.1-0.6-0.2-0.4-0.1-0.8-0.2-0.4-0.2-0.8-0.2-0.4-0.1-0.8-0.1-0.4-0.1-0.9-0.1-0.4 0-0.8 0-0.4 0.1-0.8 0.2-0.4 0.1-0.8 0.3-0.4 0.2-0.7 0.5-0.4 0.3-0.6 0.6-0.3 0.4-0.6 0.8-0.2 0.3-0.4 0.8-0.2 0.4-0.3 0.8-0.2 0.6-0.4 1.2-0.1 0.6-0.2 1.2-0.1 0.5-0.2 1.2-0.1 0.6-0.2 1.2-0.2 2.8-0.2 6.7z"/>
	<path id="Layer" fill-rule="evenodd" class="s0" d="m705 270.1q0 0.9-0.1 1.8 0 0.9-0.2 1.8-0.1 1-0.4 1.8-0.2 0.9-0.5 1.8-0.3 0.8-0.7 1.6-0.4 0.7-0.8 1.4-0.4 0.8-1 1.4-0.5 0.7-1.1 1.3-0.6 0.6-1.2 1.1-0.6 0.6-1.3 1-0.7 0.5-1.5 0.9-0.7 0.4-1.5 0.7-0.9 0.3-1.8 0.5-0.9 0.3-1.8 0.5-0.9 0.1-1.8 0.2-0.9 0.1-1.9 0-0.9 0.1-1.8 0-0.9-0.1-1.8-0.2-0.9-0.2-1.8-0.5-0.9-0.2-1.8-0.5-1.5-0.7-2.9-1.6-1.4-0.9-2.6-2.1-1.2-1.3-2.1-2.7-0.9-1.4-1.4-3-0.3-0.9-0.6-1.8-0.2-0.9-0.4-1.8-0.1-0.9-0.2-1.8-0.1-0.9 0-1.8-0.1-1 0-1.9 0.1-0.9 0.2-1.9 0.2-0.9 0.4-1.8 0.3-0.9 0.6-1.8 0.3-0.8 0.6-1.5 0.4-0.8 0.8-1.5 0.5-0.7 1-1.4 0.5-0.6 1.1-1.2 0.6-0.6 1.2-1.2 0.7-0.5 1.4-0.9 0.7-0.5 1.4-0.9 0.8-0.4 1.5-0.7 1.8-0.6 3.6-0.9 1.8-0.3 3.7-0.3 1.8 0 3.6 0.3 1.8 0.3 3.6 0.9 1.6 0.6 3 1.6 1.4 0.9 2.6 2.1 1.1 1.2 2 2.7 0.9 1.4 1.5 3 0.3 0.9 0.5 1.8 0.3 0.9 0.4 1.8 0.2 0.9 0.2 1.8 0.1 0.9 0.1 1.9zm-8.8 0q0-5.4-2.4-8.4-0.6-0.7-1.3-1.3-0.7-0.6-1.5-1-0.9-0.4-1.8-0.6-0.9-0.2-1.8-0.1-0.6 0-1.2 0-0.6 0.1-1.1 0.3-0.6 0.2-1.2 0.4-0.5 0.3-1 0.6-0.5 0.4-1 0.8-0.4 0.5-0.8 1-0.4 0.5-0.7 1-0.3 0.6-0.5 1.2-0.3 0.7-0.5 1.4-0.2 0.8-0.3 1.6-0.2 0.7-0.2 1.5-0.1 0.8-0.1 1.6 0 0.7 0.1 1.5 0 0.8 0.1 1.5 0.2 0.8 0.4 1.5 0.2 0.7 0.4 1.5 0.2 0.5 0.5 1.1 0.4 0.5 0.7 1 0.4 0.5 0.9 1 0.4 0.4 0.9 0.8 1.3 0.9 2.8 1.2 1.5 0.3 3 0.1 1.6-0.2 2.9-1 1.3-0.8 2.3-1.9 2.4-3 2.4-8.3z"/>
	<path id="Layer" fill-rule="evenodd" class="s0" d="m726.7 257.1v1.1q0.5-0.7 1.1-1.3 0.6-0.7 1.2-1.2 0.7-0.6 1.4-1.1 0.7-0.5 1.4-0.9 0.7-0.4 1.4-0.7 0.8-0.2 1.5-0.4 0.8-0.2 1.6-0.3 0.8-0.1 1.6-0.1 1 0 1.9 0.2 1 0.1 2 0.4 0.9 0.2 1.8 0.6 0.9 0.4 1.8 0.9 0.8 0.6 1.6 1.3 0.8 0.6 1.5 1.4 0.7 0.8 1.2 1.6 0.6 0.9 1.1 1.8 0.5 1.2 0.9 2.3 0.3 1.2 0.6 2.4 0.3 1.2 0.4 2.4 0.1 1.3 0.1 2.5 0 0.9-0.1 1.9-0.1 0.9-0.2 1.9-0.2 0.9-0.4 1.8-0.2 0.9-0.5 1.8-0.2 0.8-0.6 1.6-0.3 0.7-0.7 1.5-0.4 0.7-0.8 1.4-0.5 0.6-1 1.3-0.5 0.5-1.1 1-0.5 0.5-1.1 1-0.6 0.4-1.2 0.8-0.7 0.4-1.4 0.7-0.6 0.3-1.4 0.6-0.7 0.2-1.4 0.3-0.8 0.2-1.5 0.3-0.8 0.1-1.5 0-0.8 0.1-1.7 0-0.8-0.1-1.6-0.3-0.8-0.2-1.5-0.5-0.8-0.3-1.5-0.7-0.7-0.4-1.4-0.9-0.7-0.5-1.3-1.1-0.6-0.5-1.2-1.1-0.5-0.7-1-1.3v13.2q0 5.8-4.3 5.8-2.4 0-3.2-1.5-0.3-0.5-0.4-1-0.2-0.6-0.3-1.1-0.1-0.6-0.1-1.1-0.1-0.6 0-1.2v-38q-0.1-0.5 0-1 0-0.5 0.2-0.9 0.1-0.5 0.3-1 0.3-0.4 0.6-0.8 0.2-0.3 0.6-0.6 0.3-0.2 0.7-0.4 0.4-0.1 0.8-0.2 0.4-0.1 0.8-0.1 0.5 0 0.9 0.1 0.4 0.1 0.8 0.3 0.4 0.1 0.7 0.4 0.4 0.2 0.6 0.5 0.4 0.4 0.6 0.8 0.3 0.5 0.4 0.9 0.2 0.5 0.2 1 0.1 0.5 0.1 1zm17.2 12.8q0-0.8 0-1.5-0.1-0.8-0.2-1.6-0.2-0.7-0.4-1.4-0.2-0.8-0.5-1.5-0.2-0.6-0.5-1.1-0.3-0.5-0.7-1-0.3-0.5-0.8-0.9-0.4-0.5-0.9-0.8-0.5-0.4-1-0.6-0.5-0.3-1-0.4-0.5-0.2-1.1-0.3-0.5-0.1-1.1-0.1-0.9 0-1.7 0.2-0.9 0.2-1.7 0.6-0.8 0.3-1.5 0.9-0.7 0.5-1.2 1.2-2.5 2.8-2.5 8.4 0 5.3 2.4 8.2 0.6 0.7 1.3 1.3 0.7 0.5 1.5 0.9 0.8 0.4 1.7 0.5 0.8 0.2 1.7 0.2 0.6 0 1.1-0.1 0.5 0 1-0.2 0.6-0.2 1-0.4 0.5-0.2 1-0.6 0.5-0.3 0.9-0.7 0.5-0.5 0.8-0.9 0.4-0.5 0.7-1.1 0.3-0.5 0.6-1.1 0.3-0.7 0.5-1.5 0.2-0.7 0.4-1.5 0.1-0.7 0.2-1.5 0-0.8 0-1.6z"/>
	<path id="Layer" fill-rule="evenodd" class="s0" d="m791 272.2h-17.2q0 0.7 0.1 1.4 0 0.7 0.2 1.3 0.1 0.7 0.4 1.3 0.2 0.7 0.5 1.3 0.5 1.1 1.3 1.9 0.7 0.9 1.7 1.5 1 0.6 2.1 0.9 1.2 0.3 2.3 0.3 0.4 0 0.8 0 0.3 0 0.7-0.1 0.3 0 0.7-0.1 0.4-0.1 0.7-0.2 0.3-0.1 0.7-0.2 0.3-0.1 0.6-0.2 0.3-0.2 0.6-0.4 0.3-0.1 0.6-0.3 0.3-0.2 0.6-0.4 0.3-0.2 0.6-0.4 0.3-0.2 0.6-0.5 0.2-0.2 0.5-0.4 1-0.9 2.7-2.5 0.2-0.1 0.4-0.2 0.2-0.2 0.5-0.2 0.2-0.1 0.5-0.1 0.3-0.1 0.5 0 0.3-0.1 0.6 0 0.3 0 0.6 0.1 0.3 0.1 0.5 0.3 0.3 0.1 0.5 0.3 0.2 0.2 0.4 0.4 0.1 0.3 0.3 0.6 0.1 0.2 0.1 0.5 0.1 0.3 0 0.6 0 0.4-0.1 0.7 0 0.4-0.1 0.8-0.2 0.3-0.3 0.6-0.2 0.4-0.4 0.7-0.3 0.4-0.6 0.8-0.3 0.5-0.7 0.9-0.3 0.3-0.7 0.7-0.4 0.3-0.8 0.6-0.6 0.4-1.1 0.8-0.6 0.4-1.2 0.7-0.6 0.3-1.2 0.5-0.6 0.3-1.3 0.5-0.8 0.2-1.6 0.4-0.8 0.2-1.6 0.3-0.8 0.2-1.7 0.2-0.8 0.1-1.6 0.1-8.5 0-13.2-4.9-4.7-4.8-4.7-13.1 0-0.9 0.1-1.8 0-0.9 0.2-1.8 0.1-1 0.3-1.8 0.3-0.9 0.6-1.8 0.2-0.8 0.6-1.6 0.3-0.7 0.7-1.4 0.5-0.8 1-1.4 0.5-0.7 1-1.3 0.6-0.6 1.2-1.2 0.7-0.5 1.4-1 0.7-0.4 1.4-0.8 0.7-0.4 1.5-0.7 0.9-0.3 1.8-0.6 0.9-0.2 1.8-0.4 0.9-0.1 1.8-0.2 0.9-0.1 1.8-0.1 1.2 0 2.3 0.1 1.2 0.1 2.3 0.4 1.1 0.3 2.2 0.7 1.1 0.4 2.1 1 0.9 0.5 1.7 1.1 0.7 0.6 1.4 1.3 0.8 0.7 1.3 1.5 0.6 0.9 1.1 1.7 0.5 0.8 0.8 1.7 0.3 0.8 0.6 1.7 0.2 0.9 0.3 1.8 0.1 0.9 0.2 1.8 0 3.3-1.9 4.3-0.7 0.3-1.3 0.5-0.7 0.2-1.4 0.3-0.6 0.2-1.3 0.2-0.7 0.1-1.4 0zm-1.2-5q-0.3-4.5-2.4-6.7-0.6-0.6-1.2-1-0.7-0.5-1.4-0.8-0.7-0.2-1.5-0.4-0.7-0.1-1.5-0.1-0.8 0-1.5 0.1-0.7 0.2-1.4 0.5-0.7 0.3-1.4 0.7-0.6 0.4-1.1 1-2.2 2.3-2.7 6.7z"/>
	<path id="Layer" class="s0" d="m821 275.3v7.3q0 0.5 0 1.1-0.1 0.5-0.2 1-0.2 0.5-0.5 1-0.2 0.5-0.6 0.9-0.3 0.3-0.6 0.6-0.4 0.2-0.8 0.4-0.4 0.2-0.9 0.3-0.4 0.1-0.8 0-0.5 0.1-0.9 0-0.5-0.1-0.9-0.3-0.4-0.2-0.7-0.4-0.4-0.3-0.7-0.6-0.3-0.4-0.6-0.9-0.2-0.5-0.4-1-0.1-0.5-0.2-1.1 0-0.5 0-1v-24.5c0-4 1.4-5.9 4.3-5.9q0.4-0.1 0.9 0 0.4 0.1 0.8 0.3 0.5 0.1 0.8 0.4 0.4 0.3 0.7 0.7 0.2 0.4 0.4 0.9 0.2 0.5 0.4 1 0.1 0.5 0.2 1.1 0 0.5 0 1.1 0.3-0.6 0.7-1.2 0.3-0.5 0.8-1 0.4-0.6 0.8-1 0.5-0.5 0.9-0.9 0.5-0.4 1-0.7 0.6-0.3 1.1-0.4 0.6-0.2 1.2-0.3 0.6-0.1 1.2 0 0.7 0 1.4 0.1 0.7 0.1 1.4 0.2 0.6 0.2 1.3 0.5 0.7 0.2 1.3 0.6 2.6 1.3 2.6 3.6 0 0.4-0.1 0.8 0 0.3-0.2 0.7-0.1 0.3-0.3 0.6-0.3 0.3-0.5 0.6-0.3 0.2-0.5 0.4-0.3 0.2-0.6 0.3-0.3 0.2-0.7 0.2-0.3 0.1-0.6 0.1-0.3-0.1-0.6-0.1-0.3-0.1-0.6-0.1-0.3-0.1-0.6-0.2-0.3-0.1-0.6-0.2-0.4-0.1-0.8-0.2-0.4-0.2-0.8-0.2-0.4-0.1-0.8-0.1-0.4-0.1-0.8-0.1-0.5 0-0.9 0-0.4 0.1-0.8 0.2-0.4 0.1-0.8 0.3-0.4 0.2-0.7 0.5-0.3 0.3-0.6 0.6-0.3 0.4-0.6 0.8-0.2 0.3-0.4 0.8-0.2 0.4-0.3 0.8-0.2 0.6-0.3 1.2-0.2 0.6-0.3 1.2-0.1 0.5-0.2 1.2-0.1 0.6-0.1 1.2-0.3 2.8-0.3 6.7z"/>
	<path id="Layer" fill-rule="evenodd" class="s0" d="m868.3 283q-0.7 0.6-1.4 1.1-0.8 0.5-1.5 1-0.8 0.4-1.6 0.9-0.8 0.4-1.6 0.7-0.8 0.3-1.7 0.6-0.8 0.2-1.6 0.4-0.9 0.1-1.7 0.2-0.9 0.1-1.7 0.1-0.8 0-1.6-0.1-0.8-0.1-1.5-0.2-0.8-0.2-1.5-0.5-0.7-0.2-1.4-0.6-0.6-0.3-1.2-0.7-0.6-0.3-1.1-0.8-0.5-0.5-0.9-1-0.5-0.5-0.8-1.1-0.4-0.6-0.6-1.2-0.3-0.6-0.5-1.2-0.1-0.6-0.2-1.3-0.1-0.6-0.1-1.3 0-0.8 0.1-1.7 0.2-0.8 0.4-1.6 0.3-0.8 0.8-1.5 0.4-0.7 1-1.4 0.6-0.6 1.3-1.2 0.7-0.5 1.5-1 0.8-0.4 1.7-0.7 0.9-0.3 1.8-0.5c0.5-0.1 2-0.4 4.1-0.8 2.2-0.5 4.1-0.9 5.7-1.3q2.4-0.6 5.1-1.4 0.1-0.6 0-1.3-0.1-0.7-0.3-1.3-0.2-0.7-0.4-1.3-0.3-0.6-0.7-1.2-1.2-1.6-5.1-1.6-0.6 0-1.3 0-0.6 0.1-1.2 0.2-0.7 0.1-1.3 0.3-0.6 0.2-1.2 0.4-0.4 0.3-0.8 0.6-0.4 0.3-0.8 0.7-0.4 0.3-0.7 0.7-0.3 0.4-0.6 0.8-0.2 0.4-0.4 0.7-0.2 0.3-0.4 0.6-0.2 0.3-0.4 0.6-0.3 0.3-0.5 0.6-0.2 0.2-0.5 0.3-0.2 0.2-0.5 0.2-0.3 0.1-0.6 0.1-0.3 0-0.5 0-0.4 0-0.7 0-0.4-0.1-0.7-0.2-0.3-0.1-0.6-0.3-0.3-0.2-0.6-0.4-0.3-0.3-0.5-0.5-0.2-0.3-0.3-0.6-0.2-0.4-0.2-0.7-0.1-0.3-0.1-0.7 0-0.6 0.1-1.2 0.2-0.6 0.4-1.2 0.2-0.5 0.5-1.1 0.3-0.5 0.7-1 0.5-0.6 1-1.1 0.6-0.6 1.3-1 0.6-0.5 1.3-0.9 0.7-0.3 1.5-0.6 1-0.4 2.1-0.7 1.1-0.2 2.2-0.4 1-0.2 2.2-0.3 1.1-0.1 2.2 0 1.1-0.1 2.3 0 1.1 0.1 2.3 0.2 1.1 0.2 2.3 0.5 1.1 0.3 2.2 0.6 0.7 0.3 1.4 0.8 0.7 0.4 1.3 1 0.6 0.5 1.1 1.2 0.5 0.6 0.9 1.4 0.3 0.9 0.6 1.9 0.3 1 0.5 1.9 0.1 1 0.2 2 0.1 1 0 2.1 0 3.1 0 5.2c0 1.4 0 3 0 4.8q0 0.7 0.1 1.3 0.1 0.7 0.2 1.3 0.1 0.7 0.2 1.3 0.2 0.7 0.4 1.3 0.1 0.4 0.2 0.8 0.2 0.5 0.3 0.9 0.1 0.4 0.2 0.9 0 0.4 0.1 0.8 0 0.4-0.1 0.8-0.1 0.3-0.3 0.6-0.1 0.3-0.4 0.6-0.2 0.3-0.5 0.5-0.3 0.3-0.6 0.5-0.4 0.2-0.7 0.3-0.4 0.2-0.8 0.3-0.4 0-0.8 0-0.4 0-0.7-0.1-0.4-0.1-0.7-0.2-0.4-0.2-0.7-0.4-0.3-0.3-0.6-0.6-0.4-0.4-0.7-0.8-0.4-0.4-0.8-0.9-0.3-0.4-0.6-0.9-0.4-0.5-0.7-1zm-0.5-12.7q-0.7 0.2-1.4 0.4-0.7 0.2-1.4 0.4-0.7 0.2-1.5 0.4-0.7 0.1-1.4 0.3-3.7 0.8-5.1 1.1-0.4 0.1-0.7 0.3-0.4 0.1-0.7 0.3-0.4 0.2-0.7 0.4-0.3 0.2-0.6 0.5-0.3 0.3-0.6 0.6-0.2 0.3-0.4 0.7-0.1 0.4-0.2 0.8-0.1 0.5-0.1 0.9 0 0.5 0.1 0.9 0.1 0.5 0.3 0.9 0.2 0.5 0.5 0.9 0.3 0.4 0.6 0.7 0.4 0.3 0.9 0.6 0.5 0.3 1 0.5 0.5 0.2 1 0.2 0.6 0.1 1.1 0.1 0.7 0 1.3-0.1 0.6 0 1.2-0.2 0.6-0.1 1.2-0.4 0.6-0.2 1.2-0.5 0.5-0.2 0.9-0.5 0.5-0.3 0.9-0.7 0.4-0.4 0.8-0.8 0.3-0.4 0.6-0.9 1.2-2 1.2-6.6z"/>
	<path id="Layer" fill-rule="evenodd" class="s0" d="m899.2 244.1v13.5q0.5-0.6 1.1-1.2 0.6-0.5 1.2-1 0.7-0.5 1.4-1 0.6-0.4 1.3-0.8 0.8-0.4 1.6-0.6 0.7-0.3 1.5-0.5 0.8-0.1 1.7-0.2 0.8-0.1 1.6-0.1 1 0 2 0.1 1 0.2 2 0.4 1 0.3 1.9 0.7 0.9 0.4 1.8 0.9 0.8 0.6 1.6 1.2 0.8 0.7 1.4 1.4 0.7 0.8 1.2 1.6 0.5 0.9 0.9 1.8 0.5 1.1 0.9 2.3 0.3 1.1 0.5 2.3 0.3 1.2 0.4 2.4 0.1 1.2 0 2.4 0.1 0.9 0 1.8-0.1 1-0.2 1.9-0.1 0.9-0.3 1.8-0.2 0.9-0.4 1.8-0.3 0.8-0.6 1.6-0.3 0.7-0.7 1.4-0.4 0.8-0.8 1.5-0.4 0.6-0.9 1.3-0.5 0.6-1.1 1.1-0.5 0.6-1.1 1.1-0.6 0.4-1.2 0.8-0.7 0.4-1.3 0.8-0.7 0.3-1.5 0.6-0.7 0.2-1.5 0.4-0.8 0.2-1.5 0.2-0.8 0.1-1.6 0.1-0.5 0-1 0-0.5 0-0.9-0.1-0.5-0.1-1-0.2-0.5 0-0.9-0.2-0.4-0.1-0.8-0.2-0.4-0.1-0.8-0.3-0.4-0.2-0.7-0.3-0.4-0.2-0.7-0.4-0.3-0.2-0.6-0.4-0.3-0.2-0.5-0.4-0.3-0.2-0.6-0.4-0.2-0.2-0.5-0.5-0.9-0.8-2.3-2.5v0.9q0 0.5 0 1-0.1 0.5-0.2 1-0.2 0.5-0.4 0.9-0.3 0.4-0.6 0.8-0.3 0.3-0.6 0.6-0.4 0.2-0.8 0.4-0.4 0.2-0.8 0.2-0.4 0.1-0.8 0.1-0.4 0-0.8 0-0.5-0.1-0.8-0.3-0.4-0.1-0.8-0.4-0.3-0.2-0.6-0.6-0.3-0.4-0.5-0.8-0.3-0.5-0.4-0.9-0.1-0.5-0.2-1-0.1-0.5 0-1v-38.4q-0.1-0.5 0-1.1 0.1-0.5 0.2-1 0.1-0.5 0.3-1 0.3-0.5 0.6-0.9 0.2-0.3 0.6-0.6 0.3-0.3 0.7-0.4 0.4-0.2 0.8-0.3 0.4-0.1 0.9-0.1 0.4 0 0.8 0.1 0.5 0.1 0.9 0.2 0.4 0.2 0.7 0.5 0.4 0.2 0.7 0.5 0.3 0.4 0.5 0.9 0.2 0.4 0.3 0.9 0.2 0.4 0.2 0.9 0.1 0.5 0.1 1zm0.4 26.2q0 5.2 2.4 8 0.6 0.7 1.3 1.3 0.7 0.5 1.5 0.9 0.8 0.3 1.7 0.5 0.9 0.2 1.8 0.2 0.8-0.1 1.6-0.3 0.8-0.2 1.6-0.5 0.7-0.4 1.4-0.9 0.6-0.6 1.1-1.2 2.4-2.9 2.4-8.3 0-0.8 0-1.5-0.1-0.8-0.2-1.6-0.1-0.7-0.3-1.5-0.2-0.7-0.5-1.4-0.2-0.6-0.5-1.1-0.3-0.6-0.6-1.1-0.4-0.4-0.8-0.9-0.4-0.4-0.9-0.8-0.5-0.3-1-0.6-0.5-0.3-1.1-0.4-0.5-0.2-1.1-0.3-0.5-0.1-1.1-0.1-0.6 0-1.2 0.1-0.6 0.1-1.2 0.3-0.5 0.1-1.1 0.4-0.5 0.3-1 0.6-0.5 0.4-1 0.8-0.4 0.5-0.8 1-0.4 0.5-0.7 1-0.3 0.6-0.6 1.2-0.3 0.7-0.5 1.5-0.2 0.7-0.4 1.5-0.1 0.8-0.2 1.6 0 0.8 0 1.6z"/>
	<path id="Layer" class="s0" d="m938 282.6v-38.2q0-0.5 0-1 0.1-0.6 0.2-1.1 0.2-0.5 0.4-1 0.3-0.4 0.6-0.9 0.3-0.3 0.6-0.6 0.4-0.2 0.8-0.4 0.4-0.2 0.9-0.3 0.4 0 0.9 0 0.4 0 0.8 0 0.5 0.1 0.9 0.3 0.4 0.2 0.8 0.4 0.4 0.3 0.7 0.6 0.3 0.4 0.6 0.9 0.2 0.5 0.4 1 0.1 0.5 0.2 1.1 0 0.5 0 1v38.2q0 0.5 0 1.1-0.1 0.5-0.2 1-0.2 0.5-0.5 1-0.2 0.5-0.5 0.9-0.3 0.3-0.7 0.6-0.4 0.2-0.8 0.4-0.4 0.2-0.9 0.3-0.4 0.1-0.8 0-0.5 0.1-0.9 0-0.5-0.1-0.9-0.3-0.4-0.2-0.7-0.4-0.4-0.3-0.7-0.6-0.3-0.5-0.6-0.9-0.2-0.5-0.4-1-0.1-0.5-0.2-1 0-0.6 0-1.1z"/>
	<path id="Layer" fill-rule="evenodd" class="s0" d="m987.1 272.2h-17.2q0 0.7 0 1.4 0.1 0.7 0.3 1.3 0.1 0.7 0.4 1.3 0.2 0.7 0.5 1.3 0.5 1.1 1.3 1.9 0.7 0.9 1.7 1.5 1 0.6 2.1 0.9 1.2 0.3 2.3 0.3 0.4 0 0.7 0 0.4 0 0.8-0.1 0.3 0 0.7-0.1 0.3-0.1 0.7-0.2 0.3-0.1 0.7-0.2 0.3-0.1 0.6-0.2 0.3-0.2 0.6-0.4 0.3-0.1 0.6-0.3 0.3-0.2 0.6-0.4 0.3-0.2 0.6-0.4 0.3-0.2 0.5-0.5 0.3-0.2 0.6-0.4 1-0.9 2.7-2.5 0.2-0.1 0.4-0.2 0.2-0.2 0.5-0.2 0.2-0.1 0.5-0.1 0.2-0.1 0.5 0 0.3-0.1 0.6 0 0.3 0 0.6 0.1 0.2 0.1 0.5 0.3 0.3 0.1 0.5 0.3 0.2 0.2 0.4 0.4 0.1 0.3 0.2 0.6 0.2 0.2 0.2 0.5 0 0.3 0 0.6 0 0.4-0.1 0.7 0 0.4-0.2 0.8-0.1 0.3-0.2 0.6-0.2 0.4-0.4 0.7-0.3 0.4-0.6 0.8-0.3 0.5-0.7 0.9-0.3 0.3-0.7 0.7-0.4 0.3-0.8 0.6-0.6 0.4-1.1 0.8-0.6 0.4-1.2 0.7-0.6 0.3-1.2 0.5-0.6 0.3-1.3 0.5-0.8 0.2-1.6 0.4-0.8 0.2-1.6 0.3-0.8 0.2-1.7 0.2-0.8 0.1-1.6 0.1-8.5 0-13.2-4.9-4.7-4.8-4.7-13.1 0-0.9 0-1.8 0.1-1 0.3-1.9 0.1-0.9 0.3-1.8 0.2-0.9 0.5-1.7 0.3-0.8 0.7-1.6 0.3-0.7 0.7-1.5 0.5-0.7 1-1.4 0.5-0.6 1-1.3 0.6-0.6 1.2-1.1 0.7-0.5 1.4-1 0.7-0.5 1.4-0.8 0.7-0.4 1.5-0.7 0.9-0.3 1.8-0.6 0.9-0.2 1.8-0.4 0.9-0.2 1.8-0.2 0.9-0.1 1.8-0.1 1.2 0 2.3 0.1 1.2 0.1 2.3 0.4 1.1 0.3 2.2 0.7 1.1 0.4 2.1 1 0.9 0.5 1.6 1.1 0.8 0.6 1.5 1.3 0.7 0.7 1.3 1.5 0.6 0.8 1.1 1.7 0.4 0.8 0.8 1.7 0.3 0.8 0.6 1.7 0.2 0.9 0.3 1.8 0.1 0.9 0.1 1.8 0 3.3-1.9 4.3-0.6 0.3-1.2 0.5-0.7 0.2-1.4 0.3-0.7 0.2-1.3 0.2-0.7 0.1-1.4 0zm-17.2-5h15.9q-0.3-4.5-2.4-6.7-0.5-0.6-1.2-1-0.6-0.5-1.3-0.8-0.8-0.2-1.5-0.4-0.8-0.1-1.6-0.1-0.7 0-1.5 0.1-0.7 0.2-1.4 0.5-0.7 0.3-1.3 0.7-0.6 0.4-1.2 1-2.1 2.3-2.5 6.7z"/>
	<path id="Layer" class="s0" d="m1032 252.9h1v-5.2c0-1.5 0-2.6 0.1-3.4q0-0.3 0.1-0.5 0-0.3 0.1-0.6 0.1-0.2 0.2-0.5 0.1-0.2 0.2-0.5 0.2-0.2 0.3-0.4 0.2-0.2 0.4-0.4 0.2-0.2 0.4-0.3 0.2-0.2 0.4-0.3 0.3-0.2 0.5-0.3 0.3-0.1 0.6-0.2 0.2 0 0.5-0.1 0.3 0 0.6 0 0.4 0 0.8 0.1 0.4 0.1 0.8 0.3 0.4 0.1 0.7 0.3 0.4 0.3 0.7 0.6 0.2 0.2 0.4 0.4 0.2 0.2 0.3 0.5 0.2 0.2 0.3 0.5 0.1 0.3 0.1 0.6 0.1 0.4 0.1 0.8 0.1 0.5 0.1 0.9 0.1 0.4 0.1 0.8 0 0.5 0 0.9v6h3.2q0.4 0 0.8 0 0.3 0.1 0.7 0.2 0.4 0.1 0.7 0.3 0.4 0.2 0.6 0.4 0.3 0.2 0.5 0.5 0.2 0.2 0.3 0.5 0.1 0.3 0.2 0.6 0.1 0.3 0 0.7 0.1 0.3 0 0.7-0.1 0.4-0.3 0.7-0.2 0.4-0.4 0.6-0.3 0.3-0.7 0.5-0.4 0.1-0.9 0.3-0.5 0.1-1 0.2-0.5 0.1-1 0.2-0.5 0-1.1 0h-1.6v16.1q0 0.4 0 0.8 0 0.4 0 0.8 0 0.4 0.1 0.8 0 0.4 0 0.8 0.1 0.3 0.1 0.5 0.1 0.3 0.2 0.5 0.1 0.2 0.2 0.4 0.2 0.2 0.3 0.4 0.2 0.2 0.5 0.3 0.2 0.2 0.4 0.3 0.3 0.1 0.6 0.1 0.2 0 0.5 0 0.3 0 0.5 0 0.3 0 0.6-0.1 0.2 0 0.5-0.1 0.3 0 0.5-0.1 0.3 0 0.5-0.1 0.3 0 0.5 0 0.3-0.1 0.6-0.1 0.2 0 0.5 0 0.2 0 0.5 0 0.3 0.1 0.5 0.2 0.3 0.1 0.5 0.3 0.2 0.1 0.4 0.3 0.2 0.2 0.4 0.5 0.1 0.2 0.2 0.5 0.1 0.3 0.2 0.5 0.1 0.3 0 0.6 0 0.6-0.1 1.1-0.2 0.5-0.5 0.9-0.3 0.5-0.7 0.8-0.5 0.3-1 0.5-0.8 0.3-1.6 0.5-0.8 0.3-1.6 0.4-0.9 0.2-1.7 0.2-0.9 0.1-1.8 0-0.8 0.1-1.6 0-0.8-0.1-1.6-0.2-0.8-0.2-1.5-0.5-0.8-0.3-1.5-0.7-0.5-0.3-1-0.7-0.4-0.4-0.8-0.9-0.3-0.5-0.6-1.1-0.2-0.5-0.4-1.1-0.2-0.8-0.3-1.6-0.1-0.8-0.2-1.7-0.1-0.8-0.1-1.6-0.1-0.8-0.1-1.6v-16.9h-1.1q-0.4 0-0.8 0-0.4-0.1-0.7-0.2-0.4-0.1-0.8-0.3-0.3-0.2-0.6-0.4-0.3-0.2-0.4-0.5-0.2-0.2-0.4-0.5-0.1-0.3-0.2-0.7 0-0.3 0-0.6 0-0.3 0-0.6 0.1-0.4 0.3-0.7 0.1-0.3 0.3-0.5 0.2-0.3 0.4-0.5 0.4-0.2 0.7-0.4 0.4-0.2 0.8-0.3 0.4-0.1 0.8-0.1 0.4-0.1 0.8-0.1z"/>
	<path id="Layer" class="s0" d="m1070.2 275.3v7.3q0 0.5-0.1 1.1 0 0.5-0.2 1-0.1 0.5-0.4 1-0.2 0.5-0.6 0.9-0.3 0.3-0.7 0.6-0.3 0.2-0.7 0.4-0.5 0.2-0.9 0.3-0.4 0.1-0.9 0-0.4 0.1-0.9 0-0.4-0.1-0.8-0.3-0.4-0.2-0.8-0.4-0.3-0.3-0.6-0.6-0.3-0.4-0.6-0.9-0.2-0.5-0.4-1-0.2-0.5-0.2-1.1-0.1-0.5 0-1v-24.5c0-4 1.4-5.9 4.3-5.9q0.4-0.1 0.9 0 0.4 0.1 0.8 0.3 0.4 0.1 0.8 0.4 0.3 0.3 0.6 0.7 0.3 0.4 0.5 0.9 0.2 0.5 0.3 1 0.2 0.5 0.2 1.1 0.1 0.5 0.1 1.1 0.3-0.6 0.7-1.2 0.3-0.5 0.7-1 0.4-0.6 0.9-1 0.4-0.5 0.9-0.9 0.5-0.4 1-0.7 0.5-0.3 1.1-0.4 0.6-0.2 1.2-0.3 0.6-0.1 1.1 0 0.8 0 1.4 0.1 0.7 0.1 1.4 0.2 0.7 0.2 1.4 0.5 0.6 0.2 1.2 0.6 2.6 1.3 2.6 3.6 0.1 0.4 0 0.8-0.1 0.3-0.2 0.7-0.2 0.3-0.4 0.6-0.2 0.3-0.5 0.6-0.2 0.2-0.5 0.4-0.3 0.2-0.6 0.3-0.3 0.2-0.6 0.2-0.3 0.1-0.7 0.1-0.3-0.1-0.6-0.1-0.3-0.1-0.6-0.1-0.2-0.1-0.5-0.2-0.3-0.1-0.6-0.2-0.4-0.1-0.8-0.2-0.4-0.2-0.8-0.2-0.4-0.1-0.8-0.1-0.5-0.1-0.9-0.1-0.4 0-0.8 0-0.4 0.1-0.8 0.2-0.5 0.1-0.8 0.3-0.4 0.2-0.7 0.5-0.4 0.3-0.7 0.6-0.3 0.4-0.5 0.8-0.2 0.3-0.4 0.8-0.2 0.4-0.3 0.8-0.2 0.6-0.4 1.2-0.1 0.6-0.2 1.2-0.2 0.5-0.2 1.2-0.1 0.6-0.2 1.2c-0.2 1.9-0.2 4.1-0.2 6.7z"/>
	<path id="Layer" fill-rule="evenodd" class="s0" d="m1117.5 283q-0.7 0.6-1.4 1.1-0.7 0.5-1.5 1-0.8 0.4-1.6 0.9-0.8 0.4-1.6 0.7-0.8 0.3-1.6 0.6-0.9 0.2-1.7 0.4-0.9 0.1-1.7 0.2-0.9 0.1-1.7 0.1-0.8 0-1.6-0.1-0.7-0.1-1.5-0.2-0.7-0.2-1.4-0.5-0.8-0.2-1.5-0.6-0.6-0.3-1.1-0.7-0.6-0.3-1.1-0.8-0.5-0.5-1-1-0.4-0.5-0.8-1.1-0.3-0.6-0.6-1.2-0.2-0.6-0.4-1.2-0.2-0.6-0.3-1.3-0.1-0.6-0.1-1.3 0-0.8 0.2-1.7 0.1-0.8 0.4-1.6 0.3-0.8 0.7-1.5 0.5-0.7 1-1.4 0.7-0.6 1.4-1.2 0.7-0.5 1.5-1 0.8-0.4 1.7-0.7 0.8-0.3 1.7-0.5 0.9-0.2 4.2-0.8 3.3-0.7 5.7-1.3 2.3-0.6 5.1-1.4 0-0.6-0.1-1.3 0-0.7-0.2-1.3-0.2-0.7-0.5-1.3-0.2-0.6-0.6-1.2-1.2-1.6-5.1-1.6-0.7 0-1.3 0-0.7 0.1-1.3 0.2-0.6 0.1-1.2 0.3-0.6 0.2-1.2 0.4-0.5 0.3-0.9 0.6-0.4 0.3-0.8 0.7-0.3 0.3-0.6 0.7-0.4 0.4-0.6 0.8-1.2 1.9-1.7 2.5-0.3 0.2-0.5 0.3-0.3 0.2-0.6 0.2-0.2 0.1-0.5 0.1-0.3 0-0.6 0-0.3 0-0.7 0-0.3-0.1-0.7-0.2-0.3-0.1-0.6-0.3-0.3-0.2-0.6-0.4-0.2-0.3-0.4-0.5-0.2-0.3-0.4-0.6-0.1-0.4-0.2-0.7 0-0.3 0-0.7 0-0.6 0.1-1.2 0.1-0.6 0.3-1.2 0.2-0.5 0.5-1.1 0.3-0.5 0.7-1 0.5-0.6 1.1-1.1 0.6-0.6 1.2-1 0.7-0.5 1.4-0.9 0.7-0.3 1.4-0.6 1.1-0.4 2.1-0.7 1.1-0.2 2.2-0.4 1.1-0.2 2.2-0.3 1.1-0.1 2.2 0 1.2-0.1 2.3 0 1.2 0.1 2.3 0.2 1.2 0.2 2.3 0.5 1.1 0.3 2.2 0.6 0.8 0.3 1.5 0.8 0.7 0.4 1.3 1 0.6 0.5 1.1 1.2 0.5 0.6 0.8 1.4 0.4 0.9 0.7 1.9 0.3 1 0.4 1.9 0.2 1 0.3 2 0 1 0 2 0 3.2 0 5.3c0 1.4 0 3-0.1 4.8q0 0.7 0.1 1.3 0.1 0.7 0.2 1.3 0.1 0.7 0.2 1.3 0.2 0.7 0.4 1.3 0.1 0.4 0.2 0.8 0.2 0.5 0.3 0.9 0.1 0.4 0.1 0.9 0.1 0.4 0.2 0.8 0 0.4-0.1 0.8-0.1 0.3-0.3 0.6-0.1 0.3-0.4 0.6-0.2 0.3-0.5 0.5-0.3 0.3-0.6 0.5-0.4 0.2-0.7 0.4-0.4 0.1-0.8 0.2-0.4 0.1-0.8 0.1-0.4 0-0.7-0.1-0.4-0.1-0.8-0.3-0.3-0.1-0.6-0.4-0.3-0.2-0.6-0.5-0.4-0.4-0.8-0.8-0.3-0.5-0.7-1-0.3-0.4-0.6-0.9-0.4-0.5-0.7-1zm-0.5-12.7q-0.7 0.2-1.4 0.4-0.7 0.2-1.4 0.4-0.7 0.2-1.4 0.4-0.7 0.1-1.5 0.3-3.6 0.8-5.1 1.1-0.3 0.1-0.7 0.3-0.4 0.1-0.7 0.3-0.3 0.2-0.7 0.4-0.3 0.2-0.6 0.5-0.3 0.3-0.6 0.6-0.2 0.3-0.4 0.7-0.1 0.4-0.2 0.8-0.1 0.5-0.1 0.9 0 0.5 0.1 0.9 0.1 0.5 0.3 0.9 0.2 0.5 0.5 0.9 0.3 0.4 0.6 0.7 0.5 0.3 0.9 0.6 0.5 0.3 1 0.5 0.5 0.2 1.1 0.2 0.5 0.1 1 0.1 0.7 0 1.3-0.1 0.6 0 1.2-0.2 0.6-0.1 1.2-0.4 0.6-0.2 1.2-0.5 0.5-0.2 0.9-0.5 0.5-0.3 0.9-0.7 0.4-0.4 0.8-0.8 0.3-0.4 0.6-0.9 1.2-2 1.2-6.6z"/>
	<path id="Layer" fill-rule="evenodd" class="s0" d="m1165.2 282.9v-0.9q-0.4 0.5-0.8 0.9-0.4 0.5-0.8 0.9-0.5 0.4-0.9 0.8-0.5 0.4-1 0.7-0.4 0.4-0.8 0.6-0.5 0.3-0.9 0.6-0.5 0.2-1 0.4-0.5 0.2-1 0.4-0.5 0.2-1.1 0.3-0.5 0.1-1.1 0.2-0.5 0.1-1.1 0.1-0.5 0.1-1.1 0-0.7 0.1-1.5 0-0.8-0.1-1.5-0.3-0.7-0.1-1.4-0.4-0.8-0.3-1.4-0.6-0.7-0.3-1.4-0.7-0.6-0.5-1.2-0.9-0.6-0.5-1.1-1.1-0.5-0.5-1-1.1-0.5-0.7-1-1.4-0.4-0.6-0.8-1.4-0.4-0.7-0.7-1.5-0.3-0.7-0.5-1.5-0.3-0.9-0.5-1.8-0.1-0.9-0.3-1.8-0.1-0.9-0.2-1.9 0-0.9 0-1.8 0-8.3 4-12.9 1-1.1 2.2-2 1.2-0.9 2.6-1.5 1.4-0.6 2.8-0.8 1.5-0.3 3-0.3 0.8 0 1.7 0.1 0.8 0 1.6 0.2 0.8 0.2 1.6 0.4 0.8 0.3 1.5 0.6 0.7 0.4 1.4 0.9 0.7 0.4 1.3 0.9 0.7 0.5 1.3 1.1 0.6 0.5 1.1 1.1v-13q0-0.5 0-1 0.1-0.6 0.2-1.1 0.1-0.5 0.4-1 0.2-0.5 0.5-1 0.3-0.3 0.6-0.6 0.4-0.2 0.8-0.4 0.4-0.2 0.8-0.3 0.4-0.1 0.9 0 0.4-0.1 0.8 0 0.5 0.1 0.9 0.2 0.4 0.2 0.7 0.5 0.4 0.2 0.7 0.5 0.2 0.4 0.5 0.9 0.2 0.4 0.3 0.9 0.2 0.5 0.2 1 0.1 0.5 0 1v38.8q0.1 0.5 0 1 0 0.5-0.2 1-0.1 0.5-0.4 0.9-0.2 0.5-0.5 0.9-0.3 0.3-0.7 0.5-0.3 0.3-0.7 0.4-0.4 0.2-0.8 0.3-0.4 0-0.8 0-0.5 0-0.9 0-0.4-0.1-0.8-0.3-0.4-0.2-0.7-0.4-0.4-0.3-0.6-0.6-0.3-0.4-0.6-0.8-0.2-0.4-0.3-0.9-0.2-0.5-0.2-1-0.1-0.5-0.1-1zm-17.3-12.9q0 0.8 0.1 1.6 0 0.7 0.2 1.5 0.1 0.8 0.3 1.5 0.3 0.8 0.5 1.5 0.3 0.6 0.6 1.1 0.3 0.5 0.7 1 0.4 0.5 0.8 0.9 0.4 0.4 0.9 0.8 0.5 0.3 1 0.5 0.5 0.3 1.1 0.4 0.5 0.2 1.1 0.3 0.5 0.1 1.1 0.1 0.5 0 1.1-0.1 0.5-0.1 1.1-0.2 0.5-0.2 1-0.4 0.5-0.3 1-0.6 0.5-0.3 1-0.7 0.4-0.4 0.8-0.9 0.4-0.5 0.7-1 0.3-0.5 0.6-1.1 0.3-0.7 0.5-1.5 0.2-0.7 0.4-1.5 0.1-0.8 0.2-1.6 0-0.8 0-1.6 0-0.8 0-1.5-0.1-0.8-0.2-1.6-0.2-0.7-0.4-1.5-0.2-0.7-0.5-1.4-0.3-0.6-0.6-1.1-0.3-0.6-0.7-1-0.4-0.5-0.9-1-0.4-0.4-0.9-0.8-0.5-0.3-1-0.5-0.5-0.3-1.1-0.5-0.5-0.1-1.1-0.2-0.5-0.1-1.1-0.1-0.6 0-1.1 0.1-0.6 0.1-1.2 0.2-0.5 0.2-1 0.5-0.5 0.2-1 0.6-0.5 0.3-0.9 0.8-0.5 0.4-0.9 0.9-0.3 0.5-0.6 1.1-0.3 0.5-0.6 1.1-0.2 0.7-0.4 1.4-0.2 0.8-0.4 1.5-0.1 0.7-0.1 1.5-0.1 0.7-0.1 1.5z"/>
	<path id="Layer" class="s0" d="m1193.4 248.1q-0.4 0-0.8-0.1-0.4-0.1-0.8-0.2-0.4-0.1-0.8-0.4-0.4-0.2-0.7-0.4-0.3-0.4-0.6-0.7-0.2-0.4-0.4-0.8-0.2-0.4-0.3-0.9 0-0.4 0-0.8 0-0.5 0.1-0.9 0-0.4 0.2-0.8 0.2-0.4 0.5-0.8 0.2-0.3 0.5-0.6 0.3-0.3 0.7-0.5 0.4-0.3 0.8-0.4 0.4-0.2 0.8-0.3 0.4 0 0.8 0 0.4 0 0.9 0 0.4 0.1 0.7 0.2 0.4 0.2 0.8 0.4 0.3 0.2 0.6 0.5 0.4 0.3 0.6 0.6 0.3 0.4 0.5 0.8 0.1 0.4 0.2 0.9 0.1 0.4 0.1 0.9 0 0.4-0.1 0.8-0.1 0.5-0.2 0.9-0.2 0.4-0.4 0.8-0.3 0.3-0.6 0.6-0.3 0.3-0.7 0.5-0.3 0.2-0.7 0.4-0.4 0.1-0.8 0.2-0.4 0.1-0.9 0.1zm4.4 9.1v25.4q0 0.5 0 1.1-0.1 0.5-0.3 1-0.1 0.5-0.4 1-0.2 0.5-0.6 0.9-0.3 0.3-0.6 0.6-0.4 0.3-0.8 0.4-0.4 0.2-0.9 0.3-0.4 0.1-0.9 0.1-0.4 0-0.8-0.1-0.5-0.1-0.9-0.3-0.4-0.2-0.8-0.4-0.3-0.3-0.6-0.6-0.3-0.5-0.6-0.9-0.2-0.5-0.4-1-0.1-0.5-0.2-1.1 0-0.5 0-1v-25.2q0-0.5 0-1 0.1-0.6 0.2-1.1 0.2-0.5 0.4-0.9 0.3-0.5 0.6-0.9 0.3-0.3 0.7-0.6 0.3-0.2 0.7-0.4 0.4-0.2 0.9-0.3 0.4 0 0.8 0 0.5 0 0.9 0 0.5 0.1 0.9 0.3 0.4 0.2 0.8 0.4 0.3 0.3 0.6 0.6 0.4 0.4 0.6 0.8 0.3 0.4 0.4 0.9 0.2 0.5 0.3 1 0 0.5 0 1z"/>
	<path id="Layer" class="s0" d="m1221.5 257v1.1q0.5-0.7 1.1-1.4 0.5-0.6 1.2-1.2 0.6-0.5 1.3-1 0.7-0.5 1.5-0.9 0.7-0.4 1.5-0.7 0.7-0.3 1.5-0.4 0.8-0.2 1.7-0.3 0.8-0.1 1.6-0.1 0.8 0 1.6 0.1 0.8 0.1 1.6 0.3 0.8 0.2 1.5 0.5 0.8 0.3 1.5 0.6 0.7 0.4 1.3 0.9 0.6 0.4 1.1 1 0.5 0.5 0.9 1.1 0.5 0.7 0.8 1.3 0.2 0.4 0.4 0.9 0.2 0.4 0.3 0.8 0.2 0.5 0.3 0.9 0.1 0.5 0.1 0.9 0.1 0.6 0.2 1.2 0 0.6 0 1.2 0.1 0.6 0.1 1.2 0 0.6 0 1.2v16.4q0 0.5 0 1.1-0.1 0.5-0.2 1-0.2 0.5-0.4 1-0.3 0.5-0.6 0.9-0.3 0.3-0.7 0.6-0.3 0.3-0.7 0.4-0.4 0.2-0.9 0.3-0.4 0.1-0.9 0.1-0.4 0-0.9-0.1-0.4-0.1-0.8-0.3-0.4-0.2-0.8-0.4-0.4-0.3-0.6-0.6-0.4-0.5-0.6-0.9-0.3-0.5-0.4-1-0.2-0.5-0.3-1.1 0-0.5 0-1v-14.7q0.1-0.8 0-1.7 0-0.8-0.2-1.7-0.1-0.8-0.4-1.6-0.2-0.8-0.6-1.6-1.2-2.3-4.8-2.3-0.6 0-1.2 0.1-0.5 0-1.1 0.2-0.5 0.2-1 0.5-0.5 0.2-1 0.6-0.5 0.3-0.9 0.8-0.4 0.4-0.8 0.9-0.4 0.5-0.6 1-0.3 0.5-0.5 1.1-0.2 0.9-0.4 1.8-0.1 1-0.2 1.9-0.1 0.9-0.1 1.8 0 0.9 0 1.9v11q0.1 0.5 0 1-0.1 0.6-0.2 1.1-0.2 0.5-0.4 1-0.3 0.5-0.6 0.9-0.3 0.3-0.7 0.6-0.4 0.2-0.8 0.4-0.4 0.2-0.8 0.2-0.5 0.1-0.9 0.1-0.5 0-0.9-0.1-0.4-0.1-0.8-0.2-0.4-0.2-0.8-0.5-0.4-0.2-0.6-0.6-0.4-0.4-0.6-0.9-0.3-0.5-0.4-1-0.2-0.5-0.3-1 0-0.5 0-1.1v-25.3q0-0.5 0-1 0.1-0.5 0.2-1 0.2-0.5 0.4-0.9 0.2-0.5 0.5-0.9 0.3-0.3 0.6-0.5 0.4-0.3 0.8-0.4 0.4-0.2 0.8-0.3 0.4-0.1 0.8 0 0.3 0 0.6 0 0.2 0 0.5 0.1 0.3 0.1 0.5 0.2 0.3 0.1 0.5 0.2 0.3 0.2 0.5 0.3 0.2 0.2 0.4 0.4 0.2 0.2 0.3 0.5 0.2 0.2 0.3 0.5 0.2 0.3 0.3 0.6 0.1 0.3 0.2 0.6 0 0.4 0.1 0.7 0 0.4 0 0.7z"/>
	<path id="Layer" fill-rule="evenodd" class="s0" d="m1292.3 258.6v25.6q0 0.9 0 1.9-0.1 0.9-0.2 1.9-0.1 0.9-0.3 1.9-0.2 0.9-0.4 1.8-0.2 0.8-0.5 1.5-0.3 0.7-0.7 1.3-0.4 0.7-0.8 1.3-0.5 0.6-1 1.1-0.6 0.6-1.2 1.1-0.6 0.4-1.3 0.8-0.7 0.4-1.4 0.7-0.7 0.3-1.5 0.5-1 0.3-2 0.5-1.1 0.2-2.1 0.3-1.1 0.1-2.1 0.2-1.1 0-2.1 0-1 0-2.1-0.1-1 0-2-0.2-1-0.1-2-0.4-1.1-0.2-2-0.6-0.8-0.2-1.5-0.5-0.8-0.4-1.5-0.8-0.7-0.4-1.3-0.9-0.7-0.5-1.2-1.1-0.5-0.4-0.8-0.8-0.4-0.5-0.6-1-0.3-0.6-0.4-1.1-0.1-0.6-0.2-1.2 0-0.4 0.1-0.7 0-0.4 0.2-0.7 0.1-0.4 0.3-0.7 0.3-0.3 0.5-0.5 0.3-0.3 0.6-0.5 0.3-0.2 0.6-0.3 0.4-0.1 0.7-0.2 0.4 0 0.8 0 0.5 0 0.9 0.1 0.5 0.1 1 0.3 0.4 0.2 0.8 0.6 0.4 0.3 0.7 0.7c0.4 0.6 1 1.1 1.4 1.7q0.2 0.2 0.4 0.5 0.2 0.2 0.4 0.3 0.2 0.2 0.4 0.4 0.3 0.2 0.5 0.4 0.2 0.1 0.5 0.3 0.3 0.1 0.6 0.2 0.2 0.1 0.5 0.2 0.3 0.1 0.6 0.2 0.4 0.1 0.7 0.1 0.4 0.1 0.8 0.1 0.4 0.1 0.7 0.1 0.4 0 0.8 0 0.7 0 1.4 0 0.6-0.1 1.3-0.2 0.7-0.1 1.3-0.3 0.7-0.2 1.3-0.5 0.4-0.2 0.8-0.5 0.4-0.3 0.8-0.6 0.3-0.3 0.6-0.7 0.2-0.4 0.4-0.9 0.2-0.4 0.4-0.9 0.1-0.4 0.2-0.9 0.2-0.4 0.2-0.9 0.1-0.5 0.1-0.9 0.2-2 0.2-6.3-0.4 0.7-1 1.3-0.5 0.6-1.1 1.1-0.6 0.6-1.2 1-0.7 0.5-1.4 0.9-0.7 0.4-1.5 0.7-0.7 0.3-1.5 0.5-0.8 0.2-1.7 0.2-0.8 0.1-1.6 0.1-1 0-2-0.1-1.1-0.1-2-0.4-1-0.3-1.9-0.8-1-0.4-1.8-1-0.9-0.5-1.6-1.3-0.8-0.7-1.4-1.5-0.7-0.8-1.2-1.6-0.5-0.9-0.9-1.9-0.5-1.1-0.8-2.2-0.3-1.2-0.6-2.4-0.2-1.2-0.3-2.3-0.1-1.2-0.1-2.4 0-1 0.1-1.9 0-0.9 0.2-1.8 0.1-0.9 0.3-1.8 0.2-0.8 0.5-1.7 0.2-0.8 0.6-1.5 0.3-0.7 0.7-1.4 0.4-0.6 0.8-1.3 0.5-0.6 1-1.2 0.5-0.5 1-1 0.5-0.5 1.1-0.9 0.6-0.4 1.2-0.8 0.6-0.3 1.3-0.6 0.7-0.3 1.4-0.5 0.7-0.2 1.4-0.3 0.7-0.2 1.5-0.3 0.7 0 1.4 0 0.9 0 1.7 0 0.8 0.1 1.7 0.3 0.8 0.2 1.6 0.5 0.8 0.3 1.5 0.6 0.8 0.4 1.5 0.9 0.7 0.5 1.3 1.1 0.6 0.6 1.2 1.2 0.6 0.6 1.1 1.3v-1.1q0-0.5 0-1 0.1-0.4 0.2-0.9 0.2-0.4 0.4-0.9 0.2-0.4 0.5-0.7 0.3-0.4 0.6-0.6 0.4-0.2 0.8-0.4 0.3-0.2 0.7-0.2 0.4-0.1 0.8-0.1 2.6 0 3.4 1.7 0.3 0.5 0.4 1.1 0.2 0.6 0.3 1.2 0.1 0.6 0.1 1.2 0.1 0.6 0 1.2zm-25.5 11.2q0 5.3 2.4 8.1 0.5 0.6 1.2 1.1 0.7 0.6 1.4 0.9 0.8 0.4 1.7 0.5 0.8 0.2 1.7 0.2 0.5 0 1-0.1 0.6-0.1 1.1-0.2 0.5-0.2 1-0.4 0.5-0.2 1-0.5 0.5-0.3 1-0.7 0.4-0.4 0.8-0.8 0.4-0.5 0.8-1 0.3-0.5 0.6-1 0.3-0.7 0.5-1.4 0.3-0.7 0.4-1.4 0.2-0.8 0.3-1.5 0-0.7 0-1.5 0-5.4-2.4-8.4-0.5-0.7-1.2-1.3-0.7-0.5-1.5-0.9-0.8-0.4-1.7-0.6-0.9-0.2-1.8-0.2-0.9 0-1.7 0.2-0.9 0.2-1.6 0.6-0.8 0.3-1.5 0.9-0.7 0.5-1.2 1.2-2.3 2.9-2.3 8.2z"/>
</svg>